M48
; DRILL file {KiCad 8.0.7} date 2025-02-15T17:42:46+0200
; FORMAT={-:-/ absolute / metric / decimal}
; #@! TF.CreationDate,2025-02-15T17:42:46+02:00
; #@! TF.GenerationSoftware,Kicad,Pcbnew,8.0.7
; #@! TF.FileFunction,Plated,1,2,PTH
FMAT,2
METRIC
; #@! TA.AperFunction,Plated,PTH,ViaDrill
T1C0.300
; #@! TA.AperFunction,Plated,PTH,ComponentDrill
T2C1.000
%
G90
G05
T1
X120.904Y-55.88
X120.904Y-67.564
X121.412Y-75.692
X121.92Y-54.356
X122.343Y-69.077
X122.428Y-59.436
X122.936Y-54.356
X122.936Y-71.12
X123.444Y-52.324
X124.46Y-55.372
X124.46Y-61.468
X124.968Y-52.324
X124.968Y-72.044
X126.492Y-50.8
X127.0Y-81.788
X127.096Y-73.248
X127.491Y-59.944
X127.931Y-57.186
X128.016Y-53.556
X128.016Y-54.356
X128.091Y-72.794
X128.793Y-62.088
X128.793Y-76.189
X129.032Y-79.756
X129.299Y-61.468
X129.54Y-79.138
X129.899Y-56.885
X129.899Y-58.409
X130.534Y-81.302
X132.084Y-47.244
X132.206Y-83.694
X132.354Y-61.742
X133.096Y-49.784
X133.096Y-56.388
X133.096Y-79.756
X133.999Y-70.362
X134.112Y-47.244
X134.152Y-87.336
X134.306Y-54.209
X134.403Y-67.938
X134.54Y-55.292
X134.6Y-65.614
X135.128Y-89.916
X135.556Y-54.276
X135.636Y-53.34
X135.648Y-75.184
X136.501Y-78.891
X136.852Y-56.388
X137.16Y-79.756
X137.16Y-84.836
X137.16Y-86.868
X137.252Y-59.944
X137.252Y-60.744
X137.668Y-87.884
X137.867Y-65.488
X138.176Y-64.516
X138.176Y-92.456
X138.517Y-61.976
X138.684Y-89.408
X139.717Y-62.399
X140.12Y-92.456
X141.224Y-64.008
X141.224Y-65.024
X141.732Y-64.516
X143.256Y-92.456
X144.78Y-89.916
X144.78Y-91.44
X145.201Y-59.691
X146.009Y-84.836
X146.302Y-88.9
X147.32Y-92.964
X148.167Y-81.027
X149.348Y-65.532
X149.478Y-61.215
X149.478Y-61.215
X149.478Y-61.215
X151.636Y-53.848
X151.636Y-57.406
X151.636Y-57.406
X151.636Y-57.406
X152.487Y-77.469
X152.487Y-81.027
X152.487Y-85.597
X155.448Y-87.884
X155.956Y-53.848
X155.956Y-57.404
X155.956Y-61.976
X161.036Y-66.04
X161.036Y-70.612
X163.576Y-68.072
X165.1Y-65.532
X165.608Y-55.372
X166.624Y-49.784
X166.624Y-59.944
X168.148Y-51.304
X168.148Y-57.404
T2
X119.38Y-59.436
X119.38Y-61.976
X119.38Y-64.516
X119.38Y-67.056
X119.38Y-69.596
X119.38Y-72.136
X119.38Y-74.676
X126.492Y-52.324
X129.032Y-52.324
X131.572Y-52.324
X169.164Y-61.468
X169.164Y-64.008
X169.164Y-66.548
X169.164Y-69.088
M30
