M48
METRIC,TZ
T1C0.300
T2C1.000
%
G90
G05
T1
X120904Y-55880
X120904Y-67564
X121412Y-75692
X121920Y-54356
X122343Y-69077
X122428Y-59436
X122936Y-54356
X122936Y-71120
X123444Y-52324
X124460Y-55372
X124460Y-61468
X124968Y-52324
X124968Y-72044
X126492Y-50800
X127000Y-81788
X127096Y-73248
X127491Y-59944
X127931Y-57186
X128016Y-53556
X128016Y-54356
X128091Y-72794
X128793Y-62088
X128793Y-76189
X129032Y-79756
X129299Y-61468
X129540Y-79138
X129899Y-56885
X129899Y-58409
X130534Y-81302
X132084Y-47244
X132206Y-83694
X132354Y-61742
X133096Y-49784
X133096Y-56388
X133096Y-79756
X133999Y-70362
X134112Y-47244
X134152Y-87336
X134306Y-54209
X134403Y-67938
X134540Y-55292
X134600Y-65614
X135128Y-89916
X135556Y-54276
X135636Y-53340
X135648Y-75184
X136501Y-78891
X136852Y-56388
X137160Y-79756
X137160Y-84836
X137160Y-86868
X137252Y-59944
X137252Y-60744
X137668Y-87884
X137867Y-65488
X138176Y-64516
X138176Y-92456
X138517Y-61976
X138684Y-89408
X139717Y-62399
X140120Y-92456
X141224Y-64008
X141224Y-65024
X141732Y-64516
X143256Y-92456
X144780Y-89916
X144780Y-91440
X145201Y-59691
X146009Y-84836
X146302Y-88900
X147320Y-92964
X148167Y-81027
X149348Y-65532
X149478Y-61215
X149478Y-61215
X149478Y-61215
X151636Y-53848
X151636Y-57406
X151636Y-57406
X151636Y-57406
X152487Y-77469
X152487Y-81027
X152487Y-85597
X155448Y-87884
X155956Y-53848
X155956Y-57404
X155956Y-61976
X161036Y-66040
X161036Y-70612
X163576Y-68072
X165100Y-65532
X165608Y-55372
X166624Y-49784
X166624Y-59944
X168148Y-51304
X168148Y-57404
T2
X119380Y-59436
X119380Y-61976
X119380Y-64516
X119380Y-67056
X119380Y-69596
X119380Y-72136
X119380Y-74676
X126492Y-52324
X129032Y-52324
X131572Y-52324
X169164Y-61468
X169164Y-64008
X169164Y-66548
X169164Y-69088
M30
