%TF.GenerationSoftware,KiCad,Pcbnew,8.0.7*%
%TF.CreationDate,2025-02-15T17:42:46+02:00*%
%TF.ProjectId,stepper-motor-controller,73746570-7065-4722-9d6d-6f746f722d63,rev?*%
%TF.SameCoordinates,Original*%
%TF.FileFunction,Paste,Top*%
%TF.FilePolarity,Positive*%
%FSLAX46Y46*%
G04 Gerber Fmt 4.6, Leading zero omitted, Abs format (unit mm)*
G04 Created by KiCad (PCBNEW 8.0.7) date 2025-02-15 17:42:46*
%MOMM*%
%LPD*%
G01*
G04 APERTURE LIST*
G04 Aperture macros list*
%AMRoundRect*
0 Rectangle with rounded corners*
0 $1 Rounding radius*
0 $2 $3 $4 $5 $6 $7 $8 $9 X,Y pos of 4 corners*
0 Add a 4 corners polygon primitive as box body*
4,1,4,$2,$3,$4,$5,$6,$7,$8,$9,$2,$3,0*
0 Add four circle primitives for the rounded corners*
1,1,$1+$1,$2,$3*
1,1,$1+$1,$4,$5*
1,1,$1+$1,$6,$7*
1,1,$1+$1,$8,$9*
0 Add four rect primitives between the rounded corners*
20,1,$1+$1,$2,$3,$4,$5,0*
20,1,$1+$1,$4,$5,$6,$7,0*
20,1,$1+$1,$6,$7,$8,$9,0*
20,1,$1+$1,$8,$9,$2,$3,0*%
G04 Aperture macros list end*
%ADD10C,0.010000*%
%ADD11C,0.000000*%
%ADD12RoundRect,0.249999X0.450001X1.425001X-0.450001X1.425001X-0.450001X-1.425001X0.450001X-1.425001X0*%
%ADD13RoundRect,0.249999X1.425001X-0.450001X1.425001X0.450001X-1.425001X0.450001X-1.425001X-0.450001X0*%
%ADD14RoundRect,0.249999X-1.425001X0.450001X-1.425001X-0.450001X1.425001X-0.450001X1.425001X0.450001X0*%
%ADD15RoundRect,0.249999X-0.450001X-1.425001X0.450001X-1.425001X0.450001X1.425001X-0.450001X1.425001X0*%
%ADD16RoundRect,0.250000X-0.337500X-0.475000X0.337500X-0.475000X0.337500X0.475000X-0.337500X0.475000X0*%
%ADD17R,2.290000X1.400000*%
%ADD18RoundRect,0.237500X-0.250000X-0.237500X0.250000X-0.237500X0.250000X0.237500X-0.250000X0.237500X0*%
%ADD19R,1.346200X0.279400*%
%ADD20R,0.279400X1.346200*%
%ADD21RoundRect,0.237500X-0.237500X0.250000X-0.237500X-0.250000X0.237500X-0.250000X0.237500X0.250000X0*%
%ADD22RoundRect,0.237500X-0.237500X0.300000X-0.237500X-0.300000X0.237500X-0.300000X0.237500X0.300000X0*%
%ADD23RoundRect,0.237500X-0.300000X-0.237500X0.300000X-0.237500X0.300000X0.237500X-0.300000X0.237500X0*%
%ADD24RoundRect,0.237500X0.300000X0.237500X-0.300000X0.237500X-0.300000X-0.237500X0.300000X-0.237500X0*%
G04 APERTURE END LIST*
D10*
%TO.C,U6*%
X157527000Y-74639000D02*
X156197000Y-74639000D01*
X156197000Y-72879000D01*
X157527000Y-72879000D01*
X157527000Y-74639000D01*
G36*
X157527000Y-74639000D02*
G01*
X156197000Y-74639000D01*
X156197000Y-72879000D01*
X157527000Y-72879000D01*
X157527000Y-74639000D01*
G37*
X157527000Y-77489000D02*
X156197000Y-77489000D01*
X156197000Y-75729000D01*
X157527000Y-75729000D01*
X157527000Y-77489000D01*
G36*
X157527000Y-77489000D02*
G01*
X156197000Y-77489000D01*
X156197000Y-75729000D01*
X157527000Y-75729000D01*
X157527000Y-77489000D01*
G37*
X159587000Y-74639000D02*
X158257000Y-74639000D01*
X158257000Y-72879000D01*
X159587000Y-72879000D01*
X159587000Y-74639000D01*
G36*
X159587000Y-74639000D02*
G01*
X158257000Y-74639000D01*
X158257000Y-72879000D01*
X159587000Y-72879000D01*
X159587000Y-74639000D01*
G37*
X159587000Y-77489000D02*
X158257000Y-77489000D01*
X158257000Y-75729000D01*
X159587000Y-75729000D01*
X159587000Y-77489000D01*
G36*
X159587000Y-77489000D02*
G01*
X158257000Y-77489000D01*
X158257000Y-75729000D01*
X159587000Y-75729000D01*
X159587000Y-77489000D01*
G37*
X161647000Y-74639000D02*
X160317000Y-74639000D01*
X160317000Y-72879000D01*
X161647000Y-72879000D01*
X161647000Y-74639000D01*
G36*
X161647000Y-74639000D02*
G01*
X160317000Y-74639000D01*
X160317000Y-72879000D01*
X161647000Y-72879000D01*
X161647000Y-74639000D01*
G37*
X161647000Y-77489000D02*
X160317000Y-77489000D01*
X160317000Y-75729000D01*
X161647000Y-75729000D01*
X161647000Y-77489000D01*
G36*
X161647000Y-77489000D02*
G01*
X160317000Y-77489000D01*
X160317000Y-75729000D01*
X161647000Y-75729000D01*
X161647000Y-77489000D01*
G37*
D11*
%TO.C,U5*%
G36*
X131101700Y-69891700D02*
G01*
X130025350Y-69891700D01*
X130025350Y-68815350D01*
X131101700Y-68815350D01*
X131101700Y-69891700D01*
G37*
G36*
X131101700Y-68615350D02*
G01*
X130025350Y-68615350D01*
X130025350Y-67539000D01*
X131101700Y-67539000D01*
X131101700Y-68615350D01*
G37*
G36*
X131101700Y-67339000D02*
G01*
X130025350Y-67339000D01*
X130025350Y-66262650D01*
X131101700Y-66262650D01*
X131101700Y-67339000D01*
G37*
G36*
X131101700Y-66062650D02*
G01*
X130025350Y-66062650D01*
X130025350Y-64986300D01*
X131101700Y-64986300D01*
X131101700Y-66062650D01*
G37*
G36*
X129825350Y-69891700D02*
G01*
X128749000Y-69891700D01*
X128749000Y-68815350D01*
X129825350Y-68815350D01*
X129825350Y-69891700D01*
G37*
G36*
X129825350Y-68615350D02*
G01*
X128749000Y-68615350D01*
X128749000Y-67539000D01*
X129825350Y-67539000D01*
X129825350Y-68615350D01*
G37*
G36*
X129825350Y-67339000D02*
G01*
X128749000Y-67339000D01*
X128749000Y-66262650D01*
X129825350Y-66262650D01*
X129825350Y-67339000D01*
G37*
G36*
X129825350Y-66062650D02*
G01*
X128749000Y-66062650D01*
X128749000Y-64986300D01*
X129825350Y-64986300D01*
X129825350Y-66062650D01*
G37*
G36*
X128549000Y-69891700D02*
G01*
X127472650Y-69891700D01*
X127472650Y-68815350D01*
X128549000Y-68815350D01*
X128549000Y-69891700D01*
G37*
G36*
X128549000Y-68615350D02*
G01*
X127472650Y-68615350D01*
X127472650Y-67539000D01*
X128549000Y-67539000D01*
X128549000Y-68615350D01*
G37*
G36*
X128549000Y-67339000D02*
G01*
X127472650Y-67339000D01*
X127472650Y-66262650D01*
X128549000Y-66262650D01*
X128549000Y-67339000D01*
G37*
G36*
X128549000Y-66062650D02*
G01*
X127472650Y-66062650D01*
X127472650Y-64986300D01*
X128549000Y-64986300D01*
X128549000Y-66062650D01*
G37*
G36*
X127272650Y-69891700D02*
G01*
X126196300Y-69891700D01*
X126196300Y-68815350D01*
X127272650Y-68815350D01*
X127272650Y-69891700D01*
G37*
G36*
X127272650Y-68615350D02*
G01*
X126196300Y-68615350D01*
X126196300Y-67539000D01*
X127272650Y-67539000D01*
X127272650Y-68615350D01*
G37*
G36*
X127272650Y-67339000D02*
G01*
X126196300Y-67339000D01*
X126196300Y-66262650D01*
X127272650Y-66262650D01*
X127272650Y-67339000D01*
G37*
G36*
X127272650Y-66062650D02*
G01*
X126196300Y-66062650D01*
X126196300Y-64986300D01*
X127272650Y-64986300D01*
X127272650Y-66062650D01*
G37*
D10*
%TO.C,U8*%
X157527000Y-82767000D02*
X156197000Y-82767000D01*
X156197000Y-81007000D01*
X157527000Y-81007000D01*
X157527000Y-82767000D01*
G36*
X157527000Y-82767000D02*
G01*
X156197000Y-82767000D01*
X156197000Y-81007000D01*
X157527000Y-81007000D01*
X157527000Y-82767000D01*
G37*
X157527000Y-85617000D02*
X156197000Y-85617000D01*
X156197000Y-83857000D01*
X157527000Y-83857000D01*
X157527000Y-85617000D01*
G36*
X157527000Y-85617000D02*
G01*
X156197000Y-85617000D01*
X156197000Y-83857000D01*
X157527000Y-83857000D01*
X157527000Y-85617000D01*
G37*
X159587000Y-82767000D02*
X158257000Y-82767000D01*
X158257000Y-81007000D01*
X159587000Y-81007000D01*
X159587000Y-82767000D01*
G36*
X159587000Y-82767000D02*
G01*
X158257000Y-82767000D01*
X158257000Y-81007000D01*
X159587000Y-81007000D01*
X159587000Y-82767000D01*
G37*
X159587000Y-85617000D02*
X158257000Y-85617000D01*
X158257000Y-83857000D01*
X159587000Y-83857000D01*
X159587000Y-85617000D01*
G36*
X159587000Y-85617000D02*
G01*
X158257000Y-85617000D01*
X158257000Y-83857000D01*
X159587000Y-83857000D01*
X159587000Y-85617000D01*
G37*
X161647000Y-82767000D02*
X160317000Y-82767000D01*
X160317000Y-81007000D01*
X161647000Y-81007000D01*
X161647000Y-82767000D01*
G36*
X161647000Y-82767000D02*
G01*
X160317000Y-82767000D01*
X160317000Y-81007000D01*
X161647000Y-81007000D01*
X161647000Y-82767000D01*
G37*
X161647000Y-85617000D02*
X160317000Y-85617000D01*
X160317000Y-83857000D01*
X161647000Y-83857000D01*
X161647000Y-85617000D01*
G36*
X161647000Y-85617000D02*
G01*
X160317000Y-85617000D01*
X160317000Y-83857000D01*
X161647000Y-83857000D01*
X161647000Y-85617000D01*
G37*
%TO.C,U7*%
X140337000Y-74639000D02*
X139007000Y-74639000D01*
X139007000Y-72879000D01*
X140337000Y-72879000D01*
X140337000Y-74639000D01*
G36*
X140337000Y-74639000D02*
G01*
X139007000Y-74639000D01*
X139007000Y-72879000D01*
X140337000Y-72879000D01*
X140337000Y-74639000D01*
G37*
X140337000Y-77489000D02*
X139007000Y-77489000D01*
X139007000Y-75729000D01*
X140337000Y-75729000D01*
X140337000Y-77489000D01*
G36*
X140337000Y-77489000D02*
G01*
X139007000Y-77489000D01*
X139007000Y-75729000D01*
X140337000Y-75729000D01*
X140337000Y-77489000D01*
G37*
X142397000Y-74639000D02*
X141067000Y-74639000D01*
X141067000Y-72879000D01*
X142397000Y-72879000D01*
X142397000Y-74639000D01*
G36*
X142397000Y-74639000D02*
G01*
X141067000Y-74639000D01*
X141067000Y-72879000D01*
X142397000Y-72879000D01*
X142397000Y-74639000D01*
G37*
X142397000Y-77489000D02*
X141067000Y-77489000D01*
X141067000Y-75729000D01*
X142397000Y-75729000D01*
X142397000Y-77489000D01*
G36*
X142397000Y-77489000D02*
G01*
X141067000Y-77489000D01*
X141067000Y-75729000D01*
X142397000Y-75729000D01*
X142397000Y-77489000D01*
G37*
X144457000Y-74639000D02*
X143127000Y-74639000D01*
X143127000Y-72879000D01*
X144457000Y-72879000D01*
X144457000Y-74639000D01*
G36*
X144457000Y-74639000D02*
G01*
X143127000Y-74639000D01*
X143127000Y-72879000D01*
X144457000Y-72879000D01*
X144457000Y-74639000D01*
G37*
X144457000Y-77489000D02*
X143127000Y-77489000D01*
X143127000Y-75729000D01*
X144457000Y-75729000D01*
X144457000Y-77489000D01*
G36*
X144457000Y-77489000D02*
G01*
X143127000Y-77489000D01*
X143127000Y-75729000D01*
X144457000Y-75729000D01*
X144457000Y-77489000D01*
G37*
%TO.C,U9*%
X140337000Y-82767000D02*
X139007000Y-82767000D01*
X139007000Y-81007000D01*
X140337000Y-81007000D01*
X140337000Y-82767000D01*
G36*
X140337000Y-82767000D02*
G01*
X139007000Y-82767000D01*
X139007000Y-81007000D01*
X140337000Y-81007000D01*
X140337000Y-82767000D01*
G37*
X140337000Y-85617000D02*
X139007000Y-85617000D01*
X139007000Y-83857000D01*
X140337000Y-83857000D01*
X140337000Y-85617000D01*
G36*
X140337000Y-85617000D02*
G01*
X139007000Y-85617000D01*
X139007000Y-83857000D01*
X140337000Y-83857000D01*
X140337000Y-85617000D01*
G37*
X142397000Y-82767000D02*
X141067000Y-82767000D01*
X141067000Y-81007000D01*
X142397000Y-81007000D01*
X142397000Y-82767000D01*
G36*
X142397000Y-82767000D02*
G01*
X141067000Y-82767000D01*
X141067000Y-81007000D01*
X142397000Y-81007000D01*
X142397000Y-82767000D01*
G37*
X142397000Y-85617000D02*
X141067000Y-85617000D01*
X141067000Y-83857000D01*
X142397000Y-83857000D01*
X142397000Y-85617000D01*
G36*
X142397000Y-85617000D02*
G01*
X141067000Y-85617000D01*
X141067000Y-83857000D01*
X142397000Y-83857000D01*
X142397000Y-85617000D01*
G37*
X144457000Y-82767000D02*
X143127000Y-82767000D01*
X143127000Y-81007000D01*
X144457000Y-81007000D01*
X144457000Y-82767000D01*
G36*
X144457000Y-82767000D02*
G01*
X143127000Y-82767000D01*
X143127000Y-81007000D01*
X144457000Y-81007000D01*
X144457000Y-82767000D01*
G37*
X144457000Y-85617000D02*
X143127000Y-85617000D01*
X143127000Y-83857000D01*
X144457000Y-83857000D01*
X144457000Y-85617000D01*
G36*
X144457000Y-85617000D02*
G01*
X143127000Y-85617000D01*
X143127000Y-83857000D01*
X144457000Y-83857000D01*
X144457000Y-85617000D01*
G37*
%TO.C,U3*%
X160996000Y-59145999D02*
X159666000Y-59145999D01*
X159666000Y-57385999D01*
X160996000Y-57385999D01*
X160996000Y-59145999D01*
G36*
X160996000Y-59145999D02*
G01*
X159666000Y-59145999D01*
X159666000Y-57385999D01*
X160996000Y-57385999D01*
X160996000Y-59145999D01*
G37*
X160996000Y-61995999D02*
X159666000Y-61995999D01*
X159666000Y-60235999D01*
X160996000Y-60235999D01*
X160996000Y-61995999D01*
G36*
X160996000Y-61995999D02*
G01*
X159666000Y-61995999D01*
X159666000Y-60235999D01*
X160996000Y-60235999D01*
X160996000Y-61995999D01*
G37*
X163056000Y-59145999D02*
X161726000Y-59145999D01*
X161726000Y-57385999D01*
X163056000Y-57385999D01*
X163056000Y-59145999D01*
G36*
X163056000Y-59145999D02*
G01*
X161726000Y-59145999D01*
X161726000Y-57385999D01*
X163056000Y-57385999D01*
X163056000Y-59145999D01*
G37*
X163056000Y-61995999D02*
X161726000Y-61995999D01*
X161726000Y-60235999D01*
X163056000Y-60235999D01*
X163056000Y-61995999D01*
G36*
X163056000Y-61995999D02*
G01*
X161726000Y-61995999D01*
X161726000Y-60235999D01*
X163056000Y-60235999D01*
X163056000Y-61995999D01*
G37*
X165116000Y-59145999D02*
X163786000Y-59145999D01*
X163786000Y-57385999D01*
X165116000Y-57385999D01*
X165116000Y-59145999D01*
G36*
X165116000Y-59145999D02*
G01*
X163786000Y-59145999D01*
X163786000Y-57385999D01*
X165116000Y-57385999D01*
X165116000Y-59145999D01*
G37*
X165116000Y-61995999D02*
X163786000Y-61995999D01*
X163786000Y-60235999D01*
X165116000Y-60235999D01*
X165116000Y-61995999D01*
G36*
X165116000Y-61995999D02*
G01*
X163786000Y-61995999D01*
X163786000Y-60235999D01*
X165116000Y-60235999D01*
X165116000Y-61995999D01*
G37*
%TO.C,U1*%
X160996000Y-51018000D02*
X159666000Y-51018000D01*
X159666000Y-49258000D01*
X160996000Y-49258000D01*
X160996000Y-51018000D01*
G36*
X160996000Y-51018000D02*
G01*
X159666000Y-51018000D01*
X159666000Y-49258000D01*
X160996000Y-49258000D01*
X160996000Y-51018000D01*
G37*
X160996000Y-53868000D02*
X159666000Y-53868000D01*
X159666000Y-52108000D01*
X160996000Y-52108000D01*
X160996000Y-53868000D01*
G36*
X160996000Y-53868000D02*
G01*
X159666000Y-53868000D01*
X159666000Y-52108000D01*
X160996000Y-52108000D01*
X160996000Y-53868000D01*
G37*
X163056000Y-51018000D02*
X161726000Y-51018000D01*
X161726000Y-49258000D01*
X163056000Y-49258000D01*
X163056000Y-51018000D01*
G36*
X163056000Y-51018000D02*
G01*
X161726000Y-51018000D01*
X161726000Y-49258000D01*
X163056000Y-49258000D01*
X163056000Y-51018000D01*
G37*
X163056000Y-53868000D02*
X161726000Y-53868000D01*
X161726000Y-52108000D01*
X163056000Y-52108000D01*
X163056000Y-53868000D01*
G36*
X163056000Y-53868000D02*
G01*
X161726000Y-53868000D01*
X161726000Y-52108000D01*
X163056000Y-52108000D01*
X163056000Y-53868000D01*
G37*
X165116000Y-51018000D02*
X163786000Y-51018000D01*
X163786000Y-49258000D01*
X165116000Y-49258000D01*
X165116000Y-51018000D01*
G36*
X165116000Y-51018000D02*
G01*
X163786000Y-51018000D01*
X163786000Y-49258000D01*
X165116000Y-49258000D01*
X165116000Y-51018000D01*
G37*
X165116000Y-53868000D02*
X163786000Y-53868000D01*
X163786000Y-52108000D01*
X165116000Y-52108000D01*
X165116000Y-53868000D01*
G36*
X165116000Y-53868000D02*
G01*
X163786000Y-53868000D01*
X163786000Y-52108000D01*
X165116000Y-52108000D01*
X165116000Y-53868000D01*
G37*
%TO.C,U4*%
X143806000Y-59146000D02*
X142476000Y-59146000D01*
X142476000Y-57386000D01*
X143806000Y-57386000D01*
X143806000Y-59146000D01*
G36*
X143806000Y-59146000D02*
G01*
X142476000Y-59146000D01*
X142476000Y-57386000D01*
X143806000Y-57386000D01*
X143806000Y-59146000D01*
G37*
X143806000Y-61996000D02*
X142476000Y-61996000D01*
X142476000Y-60236000D01*
X143806000Y-60236000D01*
X143806000Y-61996000D01*
G36*
X143806000Y-61996000D02*
G01*
X142476000Y-61996000D01*
X142476000Y-60236000D01*
X143806000Y-60236000D01*
X143806000Y-61996000D01*
G37*
X145866000Y-59146000D02*
X144536000Y-59146000D01*
X144536000Y-57386000D01*
X145866000Y-57386000D01*
X145866000Y-59146000D01*
G36*
X145866000Y-59146000D02*
G01*
X144536000Y-59146000D01*
X144536000Y-57386000D01*
X145866000Y-57386000D01*
X145866000Y-59146000D01*
G37*
X145866000Y-61996000D02*
X144536000Y-61996000D01*
X144536000Y-60236000D01*
X145866000Y-60236000D01*
X145866000Y-61996000D01*
G36*
X145866000Y-61996000D02*
G01*
X144536000Y-61996000D01*
X144536000Y-60236000D01*
X145866000Y-60236000D01*
X145866000Y-61996000D01*
G37*
X147926000Y-59146000D02*
X146596000Y-59146000D01*
X146596000Y-57386000D01*
X147926000Y-57386000D01*
X147926000Y-59146000D01*
G36*
X147926000Y-59146000D02*
G01*
X146596000Y-59146000D01*
X146596000Y-57386000D01*
X147926000Y-57386000D01*
X147926000Y-59146000D01*
G37*
X147926000Y-61996000D02*
X146596000Y-61996000D01*
X146596000Y-60236000D01*
X147926000Y-60236000D01*
X147926000Y-61996000D01*
G36*
X147926000Y-61996000D02*
G01*
X146596000Y-61996000D01*
X146596000Y-60236000D01*
X147926000Y-60236000D01*
X147926000Y-61996000D01*
G37*
%TO.C,U2*%
X143806000Y-51018000D02*
X142476000Y-51018000D01*
X142476000Y-49258000D01*
X143806000Y-49258000D01*
X143806000Y-51018000D01*
G36*
X143806000Y-51018000D02*
G01*
X142476000Y-51018000D01*
X142476000Y-49258000D01*
X143806000Y-49258000D01*
X143806000Y-51018000D01*
G37*
X143806000Y-53868000D02*
X142476000Y-53868000D01*
X142476000Y-52108000D01*
X143806000Y-52108000D01*
X143806000Y-53868000D01*
G36*
X143806000Y-53868000D02*
G01*
X142476000Y-53868000D01*
X142476000Y-52108000D01*
X143806000Y-52108000D01*
X143806000Y-53868000D01*
G37*
X145866000Y-51018000D02*
X144536000Y-51018000D01*
X144536000Y-49258000D01*
X145866000Y-49258000D01*
X145866000Y-51018000D01*
G36*
X145866000Y-51018000D02*
G01*
X144536000Y-51018000D01*
X144536000Y-49258000D01*
X145866000Y-49258000D01*
X145866000Y-51018000D01*
G37*
X145866000Y-53868000D02*
X144536000Y-53868000D01*
X144536000Y-52108000D01*
X145866000Y-52108000D01*
X145866000Y-53868000D01*
G36*
X145866000Y-53868000D02*
G01*
X144536000Y-53868000D01*
X144536000Y-52108000D01*
X145866000Y-52108000D01*
X145866000Y-53868000D01*
G37*
X147926000Y-51018000D02*
X146596000Y-51018000D01*
X146596000Y-49258000D01*
X147926000Y-49258000D01*
X147926000Y-51018000D01*
G36*
X147926000Y-51018000D02*
G01*
X146596000Y-51018000D01*
X146596000Y-49258000D01*
X147926000Y-49258000D01*
X147926000Y-51018000D01*
G37*
X147926000Y-53868000D02*
X146596000Y-53868000D01*
X146596000Y-52108000D01*
X147926000Y-52108000D01*
X147926000Y-53868000D01*
G36*
X147926000Y-53868000D02*
G01*
X146596000Y-53868000D01*
X146596000Y-52108000D01*
X147926000Y-52108000D01*
X147926000Y-53868000D01*
G37*
%TD*%
D12*
%TO.C,R15*%
X152402000Y-88900000D03*
X146302000Y-88900000D03*
%TD*%
D13*
%TO.C,R14*%
X127000000Y-89918000D03*
X127000000Y-83818000D03*
%TD*%
D14*
%TO.C,R10*%
X119380000Y-79248000D03*
X119380000Y-85348000D03*
%TD*%
D15*
%TO.C,R9*%
X149350000Y-69596000D03*
X155450000Y-69596000D03*
%TD*%
D12*
%TO.C,R8*%
X149348000Y-65532000D03*
X155448000Y-65532000D03*
%TD*%
D14*
%TO.C,R7*%
X168148000Y-57404000D03*
X168148000Y-51304000D03*
%TD*%
D15*
%TO.C,R2*%
X125984000Y-47244000D03*
X132084000Y-47244000D03*
%TD*%
%TO.C,R1*%
X134112000Y-47244000D03*
X140212000Y-47244000D03*
%TD*%
D16*
%TO.C,C2*%
X122893000Y-76200000D03*
X124968000Y-76200000D03*
%TD*%
D17*
%TO.C,U6*%
X152487000Y-72899000D03*
X152487000Y-77469000D03*
%TD*%
D18*
%TO.C,R13*%
X140120000Y-90424000D03*
X141945000Y-90424000D03*
%TD*%
D19*
%TO.C,U5*%
X132827300Y-64689000D03*
X132827300Y-65188999D03*
X132827300Y-65689001D03*
X132827300Y-66189000D03*
X132827300Y-66688999D03*
X132827300Y-67189000D03*
X132827300Y-67689000D03*
X132827300Y-68189001D03*
X132827300Y-68689000D03*
X132827300Y-69188999D03*
X132827300Y-69689001D03*
X132827300Y-70189000D03*
D20*
X131399000Y-71617300D03*
X130899001Y-71617300D03*
X130398999Y-71617300D03*
X129899000Y-71617300D03*
X129399001Y-71617300D03*
X128899000Y-71617300D03*
X128399000Y-71617300D03*
X127898999Y-71617300D03*
X127399000Y-71617300D03*
X126899001Y-71617300D03*
X126398999Y-71617300D03*
X125899000Y-71617300D03*
D19*
X124470700Y-70189000D03*
X124470700Y-69689001D03*
X124470700Y-69188999D03*
X124470700Y-68689000D03*
X124470700Y-68189001D03*
X124470700Y-67689000D03*
X124470700Y-67189000D03*
X124470700Y-66688999D03*
X124470700Y-66189000D03*
X124470700Y-65689001D03*
X124470700Y-65188999D03*
X124470700Y-64689000D03*
D20*
X125899000Y-63260700D03*
X126398999Y-63260700D03*
X126899001Y-63260700D03*
X127399000Y-63260700D03*
X127898999Y-63260700D03*
X128399000Y-63260700D03*
X128899000Y-63260700D03*
X129399001Y-63260700D03*
X129899000Y-63260700D03*
X130398999Y-63260700D03*
X130899001Y-63260700D03*
X131399000Y-63260700D03*
%TD*%
D17*
%TO.C,U8*%
X152487000Y-81027000D03*
X152487000Y-85597000D03*
%TD*%
D21*
%TO.C,R3*%
X127931000Y-55361300D03*
X127931000Y-57186300D03*
%TD*%
D18*
%TO.C,R12*%
X140120000Y-92456000D03*
X141945000Y-92456000D03*
%TD*%
D22*
%TO.C,C10*%
X122343000Y-67352300D03*
X122343000Y-69077300D03*
%TD*%
D23*
%TO.C,C11*%
X127068500Y-76189300D03*
X128793500Y-76189300D03*
%TD*%
%TO.C,C14*%
X157197000Y-87884000D03*
X158922000Y-87884000D03*
%TD*%
D24*
%TO.C,C9*%
X131624000Y-59933300D03*
X129899000Y-59933300D03*
%TD*%
%TO.C,C15*%
X137373000Y-83312000D03*
X135648000Y-83312000D03*
%TD*%
D22*
%TO.C,C6*%
X126407000Y-57136300D03*
X126407000Y-55411300D03*
%TD*%
D17*
%TO.C,U7*%
X148167000Y-77469000D03*
X148167000Y-72899000D03*
%TD*%
D23*
%TO.C,C13*%
X135648000Y-75184000D03*
X137373000Y-75184000D03*
%TD*%
D22*
%TO.C,C7*%
X130471000Y-75326800D03*
X130471000Y-77051800D03*
%TD*%
D17*
%TO.C,U9*%
X148167000Y-85597000D03*
X148167000Y-81027000D03*
%TD*%
D24*
%TO.C,C5*%
X131624000Y-55361300D03*
X129899000Y-55361300D03*
%TD*%
%TO.C,C4*%
X131624000Y-56885300D03*
X129899000Y-56885300D03*
%TD*%
D18*
%TO.C,R11*%
X140120000Y-88392000D03*
X141945000Y-88392000D03*
%TD*%
D24*
%TO.C,C1*%
X131624000Y-58409300D03*
X129899000Y-58409300D03*
%TD*%
D17*
%TO.C,U3*%
X155956000Y-57405999D03*
X155956000Y-61975999D03*
%TD*%
D18*
%TO.C,R4*%
X143589001Y-64771000D03*
X145414001Y-64771000D03*
%TD*%
D23*
%TO.C,C8*%
X160666000Y-64262999D03*
X162391000Y-64262999D03*
%TD*%
%TO.C,C3*%
X139117000Y-51563000D03*
X140842000Y-51563000D03*
%TD*%
D24*
%TO.C,C12*%
X140842001Y-59691000D03*
X139117001Y-59691000D03*
%TD*%
D18*
%TO.C,R6*%
X143589001Y-66803000D03*
X145414001Y-66803000D03*
%TD*%
D17*
%TO.C,U1*%
X155956000Y-49278000D03*
X155956000Y-53848000D03*
%TD*%
%TO.C,U4*%
X151636000Y-61976000D03*
X151636000Y-57406000D03*
%TD*%
D18*
%TO.C,R5*%
X143589001Y-68835000D03*
X145414001Y-68835000D03*
%TD*%
D17*
%TO.C,U2*%
X151636000Y-53848000D03*
X151636000Y-49278000D03*
%TD*%
M02*
