%TF.GenerationSoftware,KiCad,Pcbnew,8.0.7*%
%TF.CreationDate,2025-02-15T17:42:46+02:00*%
%TF.ProjectId,stepper-motor-controller,73746570-7065-4722-9d6d-6f746f722d63,rev?*%
%TF.SameCoordinates,Original*%
%TF.FileFunction,Legend,Top*%
%TF.FilePolarity,Positive*%
%FSLAX46Y46*%
G04 Gerber Fmt 4.6, Leading zero omitted, Abs format (unit mm)*
G04 Created by KiCad (PCBNEW 8.0.7) date 2025-02-15 17:42:46*
%MOMM*%
%LPD*%
G01*
G04 APERTURE LIST*
%ADD10C,0.150000*%
%ADD11C,0.120000*%
%ADD12C,0.127000*%
%ADD13C,0.200000*%
%ADD14C,0.000000*%
%ADD15C,0.152400*%
%ADD16C,0.350000*%
G04 APERTURE END LIST*
D10*
X148709142Y-91974819D02*
X148375809Y-91498628D01*
X148137714Y-91974819D02*
X148137714Y-90974819D01*
X148137714Y-90974819D02*
X148518666Y-90974819D01*
X148518666Y-90974819D02*
X148613904Y-91022438D01*
X148613904Y-91022438D02*
X148661523Y-91070057D01*
X148661523Y-91070057D02*
X148709142Y-91165295D01*
X148709142Y-91165295D02*
X148709142Y-91308152D01*
X148709142Y-91308152D02*
X148661523Y-91403390D01*
X148661523Y-91403390D02*
X148613904Y-91451009D01*
X148613904Y-91451009D02*
X148518666Y-91498628D01*
X148518666Y-91498628D02*
X148137714Y-91498628D01*
X149661523Y-91974819D02*
X149090095Y-91974819D01*
X149375809Y-91974819D02*
X149375809Y-90974819D01*
X149375809Y-90974819D02*
X149280571Y-91117676D01*
X149280571Y-91117676D02*
X149185333Y-91212914D01*
X149185333Y-91212914D02*
X149090095Y-91260533D01*
X150566285Y-90974819D02*
X150090095Y-90974819D01*
X150090095Y-90974819D02*
X150042476Y-91451009D01*
X150042476Y-91451009D02*
X150090095Y-91403390D01*
X150090095Y-91403390D02*
X150185333Y-91355771D01*
X150185333Y-91355771D02*
X150423428Y-91355771D01*
X150423428Y-91355771D02*
X150518666Y-91403390D01*
X150518666Y-91403390D02*
X150566285Y-91451009D01*
X150566285Y-91451009D02*
X150613904Y-91546247D01*
X150613904Y-91546247D02*
X150613904Y-91784342D01*
X150613904Y-91784342D02*
X150566285Y-91879580D01*
X150566285Y-91879580D02*
X150518666Y-91927200D01*
X150518666Y-91927200D02*
X150423428Y-91974819D01*
X150423428Y-91974819D02*
X150185333Y-91974819D01*
X150185333Y-91974819D02*
X150090095Y-91927200D01*
X150090095Y-91927200D02*
X150042476Y-91879580D01*
X126357142Y-92402819D02*
X126023809Y-91926628D01*
X125785714Y-92402819D02*
X125785714Y-91402819D01*
X125785714Y-91402819D02*
X126166666Y-91402819D01*
X126166666Y-91402819D02*
X126261904Y-91450438D01*
X126261904Y-91450438D02*
X126309523Y-91498057D01*
X126309523Y-91498057D02*
X126357142Y-91593295D01*
X126357142Y-91593295D02*
X126357142Y-91736152D01*
X126357142Y-91736152D02*
X126309523Y-91831390D01*
X126309523Y-91831390D02*
X126261904Y-91879009D01*
X126261904Y-91879009D02*
X126166666Y-91926628D01*
X126166666Y-91926628D02*
X125785714Y-91926628D01*
X127309523Y-92402819D02*
X126738095Y-92402819D01*
X127023809Y-92402819D02*
X127023809Y-91402819D01*
X127023809Y-91402819D02*
X126928571Y-91545676D01*
X126928571Y-91545676D02*
X126833333Y-91640914D01*
X126833333Y-91640914D02*
X126738095Y-91688533D01*
X128166666Y-91736152D02*
X128166666Y-92402819D01*
X127928571Y-91355200D02*
X127690476Y-92069485D01*
X127690476Y-92069485D02*
X128309523Y-92069485D01*
X118737142Y-87830819D02*
X118403809Y-87354628D01*
X118165714Y-87830819D02*
X118165714Y-86830819D01*
X118165714Y-86830819D02*
X118546666Y-86830819D01*
X118546666Y-86830819D02*
X118641904Y-86878438D01*
X118641904Y-86878438D02*
X118689523Y-86926057D01*
X118689523Y-86926057D02*
X118737142Y-87021295D01*
X118737142Y-87021295D02*
X118737142Y-87164152D01*
X118737142Y-87164152D02*
X118689523Y-87259390D01*
X118689523Y-87259390D02*
X118641904Y-87307009D01*
X118641904Y-87307009D02*
X118546666Y-87354628D01*
X118546666Y-87354628D02*
X118165714Y-87354628D01*
X119689523Y-87830819D02*
X119118095Y-87830819D01*
X119403809Y-87830819D02*
X119403809Y-86830819D01*
X119403809Y-86830819D02*
X119308571Y-86973676D01*
X119308571Y-86973676D02*
X119213333Y-87068914D01*
X119213333Y-87068914D02*
X119118095Y-87116533D01*
X120308571Y-86830819D02*
X120403809Y-86830819D01*
X120403809Y-86830819D02*
X120499047Y-86878438D01*
X120499047Y-86878438D02*
X120546666Y-86926057D01*
X120546666Y-86926057D02*
X120594285Y-87021295D01*
X120594285Y-87021295D02*
X120641904Y-87211771D01*
X120641904Y-87211771D02*
X120641904Y-87449866D01*
X120641904Y-87449866D02*
X120594285Y-87640342D01*
X120594285Y-87640342D02*
X120546666Y-87735580D01*
X120546666Y-87735580D02*
X120499047Y-87783200D01*
X120499047Y-87783200D02*
X120403809Y-87830819D01*
X120403809Y-87830819D02*
X120308571Y-87830819D01*
X120308571Y-87830819D02*
X120213333Y-87783200D01*
X120213333Y-87783200D02*
X120165714Y-87735580D01*
X120165714Y-87735580D02*
X120118095Y-87640342D01*
X120118095Y-87640342D02*
X120070476Y-87449866D01*
X120070476Y-87449866D02*
X120070476Y-87211771D01*
X120070476Y-87211771D02*
X120118095Y-87021295D01*
X120118095Y-87021295D02*
X120165714Y-86926057D01*
X120165714Y-86926057D02*
X120213333Y-86878438D01*
X120213333Y-86878438D02*
X120308571Y-86830819D01*
X157313333Y-70050819D02*
X156980000Y-69574628D01*
X156741905Y-70050819D02*
X156741905Y-69050819D01*
X156741905Y-69050819D02*
X157122857Y-69050819D01*
X157122857Y-69050819D02*
X157218095Y-69098438D01*
X157218095Y-69098438D02*
X157265714Y-69146057D01*
X157265714Y-69146057D02*
X157313333Y-69241295D01*
X157313333Y-69241295D02*
X157313333Y-69384152D01*
X157313333Y-69384152D02*
X157265714Y-69479390D01*
X157265714Y-69479390D02*
X157218095Y-69527009D01*
X157218095Y-69527009D02*
X157122857Y-69574628D01*
X157122857Y-69574628D02*
X156741905Y-69574628D01*
X157789524Y-70050819D02*
X157980000Y-70050819D01*
X157980000Y-70050819D02*
X158075238Y-70003200D01*
X158075238Y-70003200D02*
X158122857Y-69955580D01*
X158122857Y-69955580D02*
X158218095Y-69812723D01*
X158218095Y-69812723D02*
X158265714Y-69622247D01*
X158265714Y-69622247D02*
X158265714Y-69241295D01*
X158265714Y-69241295D02*
X158218095Y-69146057D01*
X158218095Y-69146057D02*
X158170476Y-69098438D01*
X158170476Y-69098438D02*
X158075238Y-69050819D01*
X158075238Y-69050819D02*
X157884762Y-69050819D01*
X157884762Y-69050819D02*
X157789524Y-69098438D01*
X157789524Y-69098438D02*
X157741905Y-69146057D01*
X157741905Y-69146057D02*
X157694286Y-69241295D01*
X157694286Y-69241295D02*
X157694286Y-69479390D01*
X157694286Y-69479390D02*
X157741905Y-69574628D01*
X157741905Y-69574628D02*
X157789524Y-69622247D01*
X157789524Y-69622247D02*
X157884762Y-69669866D01*
X157884762Y-69669866D02*
X158075238Y-69669866D01*
X158075238Y-69669866D02*
X158170476Y-69622247D01*
X158170476Y-69622247D02*
X158218095Y-69574628D01*
X158218095Y-69574628D02*
X158265714Y-69479390D01*
X157313333Y-66494819D02*
X156980000Y-66018628D01*
X156741905Y-66494819D02*
X156741905Y-65494819D01*
X156741905Y-65494819D02*
X157122857Y-65494819D01*
X157122857Y-65494819D02*
X157218095Y-65542438D01*
X157218095Y-65542438D02*
X157265714Y-65590057D01*
X157265714Y-65590057D02*
X157313333Y-65685295D01*
X157313333Y-65685295D02*
X157313333Y-65828152D01*
X157313333Y-65828152D02*
X157265714Y-65923390D01*
X157265714Y-65923390D02*
X157218095Y-65971009D01*
X157218095Y-65971009D02*
X157122857Y-66018628D01*
X157122857Y-66018628D02*
X156741905Y-66018628D01*
X157884762Y-65923390D02*
X157789524Y-65875771D01*
X157789524Y-65875771D02*
X157741905Y-65828152D01*
X157741905Y-65828152D02*
X157694286Y-65732914D01*
X157694286Y-65732914D02*
X157694286Y-65685295D01*
X157694286Y-65685295D02*
X157741905Y-65590057D01*
X157741905Y-65590057D02*
X157789524Y-65542438D01*
X157789524Y-65542438D02*
X157884762Y-65494819D01*
X157884762Y-65494819D02*
X158075238Y-65494819D01*
X158075238Y-65494819D02*
X158170476Y-65542438D01*
X158170476Y-65542438D02*
X158218095Y-65590057D01*
X158218095Y-65590057D02*
X158265714Y-65685295D01*
X158265714Y-65685295D02*
X158265714Y-65732914D01*
X158265714Y-65732914D02*
X158218095Y-65828152D01*
X158218095Y-65828152D02*
X158170476Y-65875771D01*
X158170476Y-65875771D02*
X158075238Y-65923390D01*
X158075238Y-65923390D02*
X157884762Y-65923390D01*
X157884762Y-65923390D02*
X157789524Y-65971009D01*
X157789524Y-65971009D02*
X157741905Y-66018628D01*
X157741905Y-66018628D02*
X157694286Y-66113866D01*
X157694286Y-66113866D02*
X157694286Y-66304342D01*
X157694286Y-66304342D02*
X157741905Y-66399580D01*
X157741905Y-66399580D02*
X157789524Y-66447200D01*
X157789524Y-66447200D02*
X157884762Y-66494819D01*
X157884762Y-66494819D02*
X158075238Y-66494819D01*
X158075238Y-66494819D02*
X158170476Y-66447200D01*
X158170476Y-66447200D02*
X158218095Y-66399580D01*
X158218095Y-66399580D02*
X158265714Y-66304342D01*
X158265714Y-66304342D02*
X158265714Y-66113866D01*
X158265714Y-66113866D02*
X158218095Y-66018628D01*
X158218095Y-66018628D02*
X158170476Y-65971009D01*
X158170476Y-65971009D02*
X158075238Y-65923390D01*
X167981333Y-50238819D02*
X167648000Y-49762628D01*
X167409905Y-50238819D02*
X167409905Y-49238819D01*
X167409905Y-49238819D02*
X167790857Y-49238819D01*
X167790857Y-49238819D02*
X167886095Y-49286438D01*
X167886095Y-49286438D02*
X167933714Y-49334057D01*
X167933714Y-49334057D02*
X167981333Y-49429295D01*
X167981333Y-49429295D02*
X167981333Y-49572152D01*
X167981333Y-49572152D02*
X167933714Y-49667390D01*
X167933714Y-49667390D02*
X167886095Y-49715009D01*
X167886095Y-49715009D02*
X167790857Y-49762628D01*
X167790857Y-49762628D02*
X167409905Y-49762628D01*
X168314667Y-49238819D02*
X168981333Y-49238819D01*
X168981333Y-49238819D02*
X168552762Y-50238819D01*
X123785333Y-46682819D02*
X123452000Y-46206628D01*
X123213905Y-46682819D02*
X123213905Y-45682819D01*
X123213905Y-45682819D02*
X123594857Y-45682819D01*
X123594857Y-45682819D02*
X123690095Y-45730438D01*
X123690095Y-45730438D02*
X123737714Y-45778057D01*
X123737714Y-45778057D02*
X123785333Y-45873295D01*
X123785333Y-45873295D02*
X123785333Y-46016152D01*
X123785333Y-46016152D02*
X123737714Y-46111390D01*
X123737714Y-46111390D02*
X123690095Y-46159009D01*
X123690095Y-46159009D02*
X123594857Y-46206628D01*
X123594857Y-46206628D02*
X123213905Y-46206628D01*
X124166286Y-45778057D02*
X124213905Y-45730438D01*
X124213905Y-45730438D02*
X124309143Y-45682819D01*
X124309143Y-45682819D02*
X124547238Y-45682819D01*
X124547238Y-45682819D02*
X124642476Y-45730438D01*
X124642476Y-45730438D02*
X124690095Y-45778057D01*
X124690095Y-45778057D02*
X124737714Y-45873295D01*
X124737714Y-45873295D02*
X124737714Y-45968533D01*
X124737714Y-45968533D02*
X124690095Y-46111390D01*
X124690095Y-46111390D02*
X124118667Y-46682819D01*
X124118667Y-46682819D02*
X124737714Y-46682819D01*
X142073333Y-46174819D02*
X141740000Y-45698628D01*
X141501905Y-46174819D02*
X141501905Y-45174819D01*
X141501905Y-45174819D02*
X141882857Y-45174819D01*
X141882857Y-45174819D02*
X141978095Y-45222438D01*
X141978095Y-45222438D02*
X142025714Y-45270057D01*
X142025714Y-45270057D02*
X142073333Y-45365295D01*
X142073333Y-45365295D02*
X142073333Y-45508152D01*
X142073333Y-45508152D02*
X142025714Y-45603390D01*
X142025714Y-45603390D02*
X141978095Y-45651009D01*
X141978095Y-45651009D02*
X141882857Y-45698628D01*
X141882857Y-45698628D02*
X141501905Y-45698628D01*
X143025714Y-46174819D02*
X142454286Y-46174819D01*
X142740000Y-46174819D02*
X142740000Y-45174819D01*
X142740000Y-45174819D02*
X142644762Y-45317676D01*
X142644762Y-45317676D02*
X142549524Y-45412914D01*
X142549524Y-45412914D02*
X142454286Y-45460533D01*
X123763833Y-74879580D02*
X123716214Y-74927200D01*
X123716214Y-74927200D02*
X123573357Y-74974819D01*
X123573357Y-74974819D02*
X123478119Y-74974819D01*
X123478119Y-74974819D02*
X123335262Y-74927200D01*
X123335262Y-74927200D02*
X123240024Y-74831961D01*
X123240024Y-74831961D02*
X123192405Y-74736723D01*
X123192405Y-74736723D02*
X123144786Y-74546247D01*
X123144786Y-74546247D02*
X123144786Y-74403390D01*
X123144786Y-74403390D02*
X123192405Y-74212914D01*
X123192405Y-74212914D02*
X123240024Y-74117676D01*
X123240024Y-74117676D02*
X123335262Y-74022438D01*
X123335262Y-74022438D02*
X123478119Y-73974819D01*
X123478119Y-73974819D02*
X123573357Y-73974819D01*
X123573357Y-73974819D02*
X123716214Y-74022438D01*
X123716214Y-74022438D02*
X123763833Y-74070057D01*
X124144786Y-74070057D02*
X124192405Y-74022438D01*
X124192405Y-74022438D02*
X124287643Y-73974819D01*
X124287643Y-73974819D02*
X124525738Y-73974819D01*
X124525738Y-73974819D02*
X124620976Y-74022438D01*
X124620976Y-74022438D02*
X124668595Y-74070057D01*
X124668595Y-74070057D02*
X124716214Y-74165295D01*
X124716214Y-74165295D02*
X124716214Y-74260533D01*
X124716214Y-74260533D02*
X124668595Y-74403390D01*
X124668595Y-74403390D02*
X124097167Y-74974819D01*
X124097167Y-74974819D02*
X124716214Y-74974819D01*
X159471095Y-70574819D02*
X159471095Y-71384342D01*
X159471095Y-71384342D02*
X159518714Y-71479580D01*
X159518714Y-71479580D02*
X159566333Y-71527200D01*
X159566333Y-71527200D02*
X159661571Y-71574819D01*
X159661571Y-71574819D02*
X159852047Y-71574819D01*
X159852047Y-71574819D02*
X159947285Y-71527200D01*
X159947285Y-71527200D02*
X159994904Y-71479580D01*
X159994904Y-71479580D02*
X160042523Y-71384342D01*
X160042523Y-71384342D02*
X160042523Y-70574819D01*
X160947285Y-70574819D02*
X160756809Y-70574819D01*
X160756809Y-70574819D02*
X160661571Y-70622438D01*
X160661571Y-70622438D02*
X160613952Y-70670057D01*
X160613952Y-70670057D02*
X160518714Y-70812914D01*
X160518714Y-70812914D02*
X160471095Y-71003390D01*
X160471095Y-71003390D02*
X160471095Y-71384342D01*
X160471095Y-71384342D02*
X160518714Y-71479580D01*
X160518714Y-71479580D02*
X160566333Y-71527200D01*
X160566333Y-71527200D02*
X160661571Y-71574819D01*
X160661571Y-71574819D02*
X160852047Y-71574819D01*
X160852047Y-71574819D02*
X160947285Y-71527200D01*
X160947285Y-71527200D02*
X160994904Y-71479580D01*
X160994904Y-71479580D02*
X161042523Y-71384342D01*
X161042523Y-71384342D02*
X161042523Y-71146247D01*
X161042523Y-71146247D02*
X160994904Y-71051009D01*
X160994904Y-71051009D02*
X160947285Y-71003390D01*
X160947285Y-71003390D02*
X160852047Y-70955771D01*
X160852047Y-70955771D02*
X160661571Y-70955771D01*
X160661571Y-70955771D02*
X160566333Y-71003390D01*
X160566333Y-71003390D02*
X160518714Y-71051009D01*
X160518714Y-71051009D02*
X160471095Y-71146247D01*
X137238142Y-90878819D02*
X136904809Y-90402628D01*
X136666714Y-90878819D02*
X136666714Y-89878819D01*
X136666714Y-89878819D02*
X137047666Y-89878819D01*
X137047666Y-89878819D02*
X137142904Y-89926438D01*
X137142904Y-89926438D02*
X137190523Y-89974057D01*
X137190523Y-89974057D02*
X137238142Y-90069295D01*
X137238142Y-90069295D02*
X137238142Y-90212152D01*
X137238142Y-90212152D02*
X137190523Y-90307390D01*
X137190523Y-90307390D02*
X137142904Y-90355009D01*
X137142904Y-90355009D02*
X137047666Y-90402628D01*
X137047666Y-90402628D02*
X136666714Y-90402628D01*
X138190523Y-90878819D02*
X137619095Y-90878819D01*
X137904809Y-90878819D02*
X137904809Y-89878819D01*
X137904809Y-89878819D02*
X137809571Y-90021676D01*
X137809571Y-90021676D02*
X137714333Y-90116914D01*
X137714333Y-90116914D02*
X137619095Y-90164533D01*
X138523857Y-89878819D02*
X139142904Y-89878819D01*
X139142904Y-89878819D02*
X138809571Y-90259771D01*
X138809571Y-90259771D02*
X138952428Y-90259771D01*
X138952428Y-90259771D02*
X139047666Y-90307390D01*
X139047666Y-90307390D02*
X139095285Y-90355009D01*
X139095285Y-90355009D02*
X139142904Y-90450247D01*
X139142904Y-90450247D02*
X139142904Y-90688342D01*
X139142904Y-90688342D02*
X139095285Y-90783580D01*
X139095285Y-90783580D02*
X139047666Y-90831200D01*
X139047666Y-90831200D02*
X138952428Y-90878819D01*
X138952428Y-90878819D02*
X138666714Y-90878819D01*
X138666714Y-90878819D02*
X138571476Y-90831200D01*
X138571476Y-90831200D02*
X138523857Y-90783580D01*
X129194180Y-66677095D02*
X128384657Y-66677095D01*
X128384657Y-66677095D02*
X128289419Y-66724714D01*
X128289419Y-66724714D02*
X128241800Y-66772333D01*
X128241800Y-66772333D02*
X128194180Y-66867571D01*
X128194180Y-66867571D02*
X128194180Y-67058047D01*
X128194180Y-67058047D02*
X128241800Y-67153285D01*
X128241800Y-67153285D02*
X128289419Y-67200904D01*
X128289419Y-67200904D02*
X128384657Y-67248523D01*
X128384657Y-67248523D02*
X129194180Y-67248523D01*
X129194180Y-68200904D02*
X129194180Y-67724714D01*
X129194180Y-67724714D02*
X128717990Y-67677095D01*
X128717990Y-67677095D02*
X128765609Y-67724714D01*
X128765609Y-67724714D02*
X128813228Y-67819952D01*
X128813228Y-67819952D02*
X128813228Y-68058047D01*
X128813228Y-68058047D02*
X128765609Y-68153285D01*
X128765609Y-68153285D02*
X128717990Y-68200904D01*
X128717990Y-68200904D02*
X128622752Y-68248523D01*
X128622752Y-68248523D02*
X128384657Y-68248523D01*
X128384657Y-68248523D02*
X128289419Y-68200904D01*
X128289419Y-68200904D02*
X128241800Y-68153285D01*
X128241800Y-68153285D02*
X128194180Y-68058047D01*
X128194180Y-68058047D02*
X128194180Y-67819952D01*
X128194180Y-67819952D02*
X128241800Y-67724714D01*
X128241800Y-67724714D02*
X128289419Y-67677095D01*
X131484819Y-61952599D02*
X131722914Y-61952599D01*
X131627676Y-62190694D02*
X131722914Y-61952599D01*
X131722914Y-61952599D02*
X131627676Y-61714504D01*
X131913390Y-62095456D02*
X131722914Y-61952599D01*
X131722914Y-61952599D02*
X131913390Y-61809742D01*
X132575180Y-61952600D02*
X132337085Y-61952600D01*
X132432323Y-61714505D02*
X132337085Y-61952600D01*
X132337085Y-61952600D02*
X132432323Y-62190695D01*
X132146609Y-61809743D02*
X132337085Y-61952600D01*
X132337085Y-61952600D02*
X132146609Y-62095457D01*
X160487095Y-87338819D02*
X160487095Y-88148342D01*
X160487095Y-88148342D02*
X160534714Y-88243580D01*
X160534714Y-88243580D02*
X160582333Y-88291200D01*
X160582333Y-88291200D02*
X160677571Y-88338819D01*
X160677571Y-88338819D02*
X160868047Y-88338819D01*
X160868047Y-88338819D02*
X160963285Y-88291200D01*
X160963285Y-88291200D02*
X161010904Y-88243580D01*
X161010904Y-88243580D02*
X161058523Y-88148342D01*
X161058523Y-88148342D02*
X161058523Y-87338819D01*
X161677571Y-87767390D02*
X161582333Y-87719771D01*
X161582333Y-87719771D02*
X161534714Y-87672152D01*
X161534714Y-87672152D02*
X161487095Y-87576914D01*
X161487095Y-87576914D02*
X161487095Y-87529295D01*
X161487095Y-87529295D02*
X161534714Y-87434057D01*
X161534714Y-87434057D02*
X161582333Y-87386438D01*
X161582333Y-87386438D02*
X161677571Y-87338819D01*
X161677571Y-87338819D02*
X161868047Y-87338819D01*
X161868047Y-87338819D02*
X161963285Y-87386438D01*
X161963285Y-87386438D02*
X162010904Y-87434057D01*
X162010904Y-87434057D02*
X162058523Y-87529295D01*
X162058523Y-87529295D02*
X162058523Y-87576914D01*
X162058523Y-87576914D02*
X162010904Y-87672152D01*
X162010904Y-87672152D02*
X161963285Y-87719771D01*
X161963285Y-87719771D02*
X161868047Y-87767390D01*
X161868047Y-87767390D02*
X161677571Y-87767390D01*
X161677571Y-87767390D02*
X161582333Y-87815009D01*
X161582333Y-87815009D02*
X161534714Y-87862628D01*
X161534714Y-87862628D02*
X161487095Y-87957866D01*
X161487095Y-87957866D02*
X161487095Y-88148342D01*
X161487095Y-88148342D02*
X161534714Y-88243580D01*
X161534714Y-88243580D02*
X161582333Y-88291200D01*
X161582333Y-88291200D02*
X161677571Y-88338819D01*
X161677571Y-88338819D02*
X161868047Y-88338819D01*
X161868047Y-88338819D02*
X161963285Y-88291200D01*
X161963285Y-88291200D02*
X162010904Y-88243580D01*
X162010904Y-88243580D02*
X162058523Y-88148342D01*
X162058523Y-88148342D02*
X162058523Y-87957866D01*
X162058523Y-87957866D02*
X162010904Y-87862628D01*
X162010904Y-87862628D02*
X161963285Y-87815009D01*
X161963285Y-87815009D02*
X161868047Y-87767390D01*
X128385819Y-59133966D02*
X127909628Y-59467299D01*
X128385819Y-59705394D02*
X127385819Y-59705394D01*
X127385819Y-59705394D02*
X127385819Y-59324442D01*
X127385819Y-59324442D02*
X127433438Y-59229204D01*
X127433438Y-59229204D02*
X127481057Y-59181585D01*
X127481057Y-59181585D02*
X127576295Y-59133966D01*
X127576295Y-59133966D02*
X127719152Y-59133966D01*
X127719152Y-59133966D02*
X127814390Y-59181585D01*
X127814390Y-59181585D02*
X127862009Y-59229204D01*
X127862009Y-59229204D02*
X127909628Y-59324442D01*
X127909628Y-59324442D02*
X127909628Y-59705394D01*
X127385819Y-58800632D02*
X127385819Y-58181585D01*
X127385819Y-58181585D02*
X127766771Y-58514918D01*
X127766771Y-58514918D02*
X127766771Y-58372061D01*
X127766771Y-58372061D02*
X127814390Y-58276823D01*
X127814390Y-58276823D02*
X127862009Y-58229204D01*
X127862009Y-58229204D02*
X127957247Y-58181585D01*
X127957247Y-58181585D02*
X128195342Y-58181585D01*
X128195342Y-58181585D02*
X128290580Y-58229204D01*
X128290580Y-58229204D02*
X128338200Y-58276823D01*
X128338200Y-58276823D02*
X128385819Y-58372061D01*
X128385819Y-58372061D02*
X128385819Y-58657775D01*
X128385819Y-58657775D02*
X128338200Y-58753013D01*
X128338200Y-58753013D02*
X128290580Y-58800632D01*
X137238142Y-92910819D02*
X136904809Y-92434628D01*
X136666714Y-92910819D02*
X136666714Y-91910819D01*
X136666714Y-91910819D02*
X137047666Y-91910819D01*
X137047666Y-91910819D02*
X137142904Y-91958438D01*
X137142904Y-91958438D02*
X137190523Y-92006057D01*
X137190523Y-92006057D02*
X137238142Y-92101295D01*
X137238142Y-92101295D02*
X137238142Y-92244152D01*
X137238142Y-92244152D02*
X137190523Y-92339390D01*
X137190523Y-92339390D02*
X137142904Y-92387009D01*
X137142904Y-92387009D02*
X137047666Y-92434628D01*
X137047666Y-92434628D02*
X136666714Y-92434628D01*
X138190523Y-92910819D02*
X137619095Y-92910819D01*
X137904809Y-92910819D02*
X137904809Y-91910819D01*
X137904809Y-91910819D02*
X137809571Y-92053676D01*
X137809571Y-92053676D02*
X137714333Y-92148914D01*
X137714333Y-92148914D02*
X137619095Y-92196533D01*
X138571476Y-92006057D02*
X138619095Y-91958438D01*
X138619095Y-91958438D02*
X138714333Y-91910819D01*
X138714333Y-91910819D02*
X138952428Y-91910819D01*
X138952428Y-91910819D02*
X139047666Y-91958438D01*
X139047666Y-91958438D02*
X139095285Y-92006057D01*
X139095285Y-92006057D02*
X139142904Y-92101295D01*
X139142904Y-92101295D02*
X139142904Y-92196533D01*
X139142904Y-92196533D02*
X139095285Y-92339390D01*
X139095285Y-92339390D02*
X138523857Y-92910819D01*
X138523857Y-92910819D02*
X139142904Y-92910819D01*
X122702580Y-72260157D02*
X122750200Y-72307776D01*
X122750200Y-72307776D02*
X122797819Y-72450633D01*
X122797819Y-72450633D02*
X122797819Y-72545871D01*
X122797819Y-72545871D02*
X122750200Y-72688728D01*
X122750200Y-72688728D02*
X122654961Y-72783966D01*
X122654961Y-72783966D02*
X122559723Y-72831585D01*
X122559723Y-72831585D02*
X122369247Y-72879204D01*
X122369247Y-72879204D02*
X122226390Y-72879204D01*
X122226390Y-72879204D02*
X122035914Y-72831585D01*
X122035914Y-72831585D02*
X121940676Y-72783966D01*
X121940676Y-72783966D02*
X121845438Y-72688728D01*
X121845438Y-72688728D02*
X121797819Y-72545871D01*
X121797819Y-72545871D02*
X121797819Y-72450633D01*
X121797819Y-72450633D02*
X121845438Y-72307776D01*
X121845438Y-72307776D02*
X121893057Y-72260157D01*
X122797819Y-71307776D02*
X122797819Y-71879204D01*
X122797819Y-71593490D02*
X121797819Y-71593490D01*
X121797819Y-71593490D02*
X121940676Y-71688728D01*
X121940676Y-71688728D02*
X122035914Y-71783966D01*
X122035914Y-71783966D02*
X122083533Y-71879204D01*
X121797819Y-70688728D02*
X121797819Y-70593490D01*
X121797819Y-70593490D02*
X121845438Y-70498252D01*
X121845438Y-70498252D02*
X121893057Y-70450633D01*
X121893057Y-70450633D02*
X121988295Y-70403014D01*
X121988295Y-70403014D02*
X122178771Y-70355395D01*
X122178771Y-70355395D02*
X122416866Y-70355395D01*
X122416866Y-70355395D02*
X122607342Y-70403014D01*
X122607342Y-70403014D02*
X122702580Y-70450633D01*
X122702580Y-70450633D02*
X122750200Y-70498252D01*
X122750200Y-70498252D02*
X122797819Y-70593490D01*
X122797819Y-70593490D02*
X122797819Y-70688728D01*
X122797819Y-70688728D02*
X122750200Y-70783966D01*
X122750200Y-70783966D02*
X122702580Y-70831585D01*
X122702580Y-70831585D02*
X122607342Y-70879204D01*
X122607342Y-70879204D02*
X122416866Y-70926823D01*
X122416866Y-70926823D02*
X122178771Y-70926823D01*
X122178771Y-70926823D02*
X121988295Y-70879204D01*
X121988295Y-70879204D02*
X121893057Y-70831585D01*
X121893057Y-70831585D02*
X121845438Y-70783966D01*
X121845438Y-70783966D02*
X121797819Y-70688728D01*
X127373142Y-75035580D02*
X127325523Y-75083200D01*
X127325523Y-75083200D02*
X127182666Y-75130819D01*
X127182666Y-75130819D02*
X127087428Y-75130819D01*
X127087428Y-75130819D02*
X126944571Y-75083200D01*
X126944571Y-75083200D02*
X126849333Y-74987961D01*
X126849333Y-74987961D02*
X126801714Y-74892723D01*
X126801714Y-74892723D02*
X126754095Y-74702247D01*
X126754095Y-74702247D02*
X126754095Y-74559390D01*
X126754095Y-74559390D02*
X126801714Y-74368914D01*
X126801714Y-74368914D02*
X126849333Y-74273676D01*
X126849333Y-74273676D02*
X126944571Y-74178438D01*
X126944571Y-74178438D02*
X127087428Y-74130819D01*
X127087428Y-74130819D02*
X127182666Y-74130819D01*
X127182666Y-74130819D02*
X127325523Y-74178438D01*
X127325523Y-74178438D02*
X127373142Y-74226057D01*
X128325523Y-75130819D02*
X127754095Y-75130819D01*
X128039809Y-75130819D02*
X128039809Y-74130819D01*
X128039809Y-74130819D02*
X127944571Y-74273676D01*
X127944571Y-74273676D02*
X127849333Y-74368914D01*
X127849333Y-74368914D02*
X127754095Y-74416533D01*
X129277904Y-75130819D02*
X128706476Y-75130819D01*
X128992190Y-75130819D02*
X128992190Y-74130819D01*
X128992190Y-74130819D02*
X128896952Y-74273676D01*
X128896952Y-74273676D02*
X128801714Y-74368914D01*
X128801714Y-74368914D02*
X128706476Y-74416533D01*
X154002142Y-88243580D02*
X153954523Y-88291200D01*
X153954523Y-88291200D02*
X153811666Y-88338819D01*
X153811666Y-88338819D02*
X153716428Y-88338819D01*
X153716428Y-88338819D02*
X153573571Y-88291200D01*
X153573571Y-88291200D02*
X153478333Y-88195961D01*
X153478333Y-88195961D02*
X153430714Y-88100723D01*
X153430714Y-88100723D02*
X153383095Y-87910247D01*
X153383095Y-87910247D02*
X153383095Y-87767390D01*
X153383095Y-87767390D02*
X153430714Y-87576914D01*
X153430714Y-87576914D02*
X153478333Y-87481676D01*
X153478333Y-87481676D02*
X153573571Y-87386438D01*
X153573571Y-87386438D02*
X153716428Y-87338819D01*
X153716428Y-87338819D02*
X153811666Y-87338819D01*
X153811666Y-87338819D02*
X153954523Y-87386438D01*
X153954523Y-87386438D02*
X154002142Y-87434057D01*
X154954523Y-88338819D02*
X154383095Y-88338819D01*
X154668809Y-88338819D02*
X154668809Y-87338819D01*
X154668809Y-87338819D02*
X154573571Y-87481676D01*
X154573571Y-87481676D02*
X154478333Y-87576914D01*
X154478333Y-87576914D02*
X154383095Y-87624533D01*
X155811666Y-87672152D02*
X155811666Y-88338819D01*
X155573571Y-87291200D02*
X155335476Y-88005485D01*
X155335476Y-88005485D02*
X155954523Y-88005485D01*
X133352333Y-60292880D02*
X133304714Y-60340500D01*
X133304714Y-60340500D02*
X133161857Y-60388119D01*
X133161857Y-60388119D02*
X133066619Y-60388119D01*
X133066619Y-60388119D02*
X132923762Y-60340500D01*
X132923762Y-60340500D02*
X132828524Y-60245261D01*
X132828524Y-60245261D02*
X132780905Y-60150023D01*
X132780905Y-60150023D02*
X132733286Y-59959547D01*
X132733286Y-59959547D02*
X132733286Y-59816690D01*
X132733286Y-59816690D02*
X132780905Y-59626214D01*
X132780905Y-59626214D02*
X132828524Y-59530976D01*
X132828524Y-59530976D02*
X132923762Y-59435738D01*
X132923762Y-59435738D02*
X133066619Y-59388119D01*
X133066619Y-59388119D02*
X133161857Y-59388119D01*
X133161857Y-59388119D02*
X133304714Y-59435738D01*
X133304714Y-59435738D02*
X133352333Y-59483357D01*
X133828524Y-60388119D02*
X134019000Y-60388119D01*
X134019000Y-60388119D02*
X134114238Y-60340500D01*
X134114238Y-60340500D02*
X134161857Y-60292880D01*
X134161857Y-60292880D02*
X134257095Y-60150023D01*
X134257095Y-60150023D02*
X134304714Y-59959547D01*
X134304714Y-59959547D02*
X134304714Y-59578595D01*
X134304714Y-59578595D02*
X134257095Y-59483357D01*
X134257095Y-59483357D02*
X134209476Y-59435738D01*
X134209476Y-59435738D02*
X134114238Y-59388119D01*
X134114238Y-59388119D02*
X133923762Y-59388119D01*
X133923762Y-59388119D02*
X133828524Y-59435738D01*
X133828524Y-59435738D02*
X133780905Y-59483357D01*
X133780905Y-59483357D02*
X133733286Y-59578595D01*
X133733286Y-59578595D02*
X133733286Y-59816690D01*
X133733286Y-59816690D02*
X133780905Y-59911928D01*
X133780905Y-59911928D02*
X133828524Y-59959547D01*
X133828524Y-59959547D02*
X133923762Y-60007166D01*
X133923762Y-60007166D02*
X134114238Y-60007166D01*
X134114238Y-60007166D02*
X134209476Y-59959547D01*
X134209476Y-59959547D02*
X134257095Y-59911928D01*
X134257095Y-59911928D02*
X134304714Y-59816690D01*
X132158142Y-83671580D02*
X132110523Y-83719200D01*
X132110523Y-83719200D02*
X131967666Y-83766819D01*
X131967666Y-83766819D02*
X131872428Y-83766819D01*
X131872428Y-83766819D02*
X131729571Y-83719200D01*
X131729571Y-83719200D02*
X131634333Y-83623961D01*
X131634333Y-83623961D02*
X131586714Y-83528723D01*
X131586714Y-83528723D02*
X131539095Y-83338247D01*
X131539095Y-83338247D02*
X131539095Y-83195390D01*
X131539095Y-83195390D02*
X131586714Y-83004914D01*
X131586714Y-83004914D02*
X131634333Y-82909676D01*
X131634333Y-82909676D02*
X131729571Y-82814438D01*
X131729571Y-82814438D02*
X131872428Y-82766819D01*
X131872428Y-82766819D02*
X131967666Y-82766819D01*
X131967666Y-82766819D02*
X132110523Y-82814438D01*
X132110523Y-82814438D02*
X132158142Y-82862057D01*
X133110523Y-83766819D02*
X132539095Y-83766819D01*
X132824809Y-83766819D02*
X132824809Y-82766819D01*
X132824809Y-82766819D02*
X132729571Y-82909676D01*
X132729571Y-82909676D02*
X132634333Y-83004914D01*
X132634333Y-83004914D02*
X132539095Y-83052533D01*
X134015285Y-82766819D02*
X133539095Y-82766819D01*
X133539095Y-82766819D02*
X133491476Y-83243009D01*
X133491476Y-83243009D02*
X133539095Y-83195390D01*
X133539095Y-83195390D02*
X133634333Y-83147771D01*
X133634333Y-83147771D02*
X133872428Y-83147771D01*
X133872428Y-83147771D02*
X133967666Y-83195390D01*
X133967666Y-83195390D02*
X134015285Y-83243009D01*
X134015285Y-83243009D02*
X134062904Y-83338247D01*
X134062904Y-83338247D02*
X134062904Y-83576342D01*
X134062904Y-83576342D02*
X134015285Y-83671580D01*
X134015285Y-83671580D02*
X133967666Y-83719200D01*
X133967666Y-83719200D02*
X133872428Y-83766819D01*
X133872428Y-83766819D02*
X133634333Y-83766819D01*
X133634333Y-83766819D02*
X133539095Y-83719200D01*
X133539095Y-83719200D02*
X133491476Y-83671580D01*
X126766580Y-59083966D02*
X126814200Y-59131585D01*
X126814200Y-59131585D02*
X126861819Y-59274442D01*
X126861819Y-59274442D02*
X126861819Y-59369680D01*
X126861819Y-59369680D02*
X126814200Y-59512537D01*
X126814200Y-59512537D02*
X126718961Y-59607775D01*
X126718961Y-59607775D02*
X126623723Y-59655394D01*
X126623723Y-59655394D02*
X126433247Y-59703013D01*
X126433247Y-59703013D02*
X126290390Y-59703013D01*
X126290390Y-59703013D02*
X126099914Y-59655394D01*
X126099914Y-59655394D02*
X126004676Y-59607775D01*
X126004676Y-59607775D02*
X125909438Y-59512537D01*
X125909438Y-59512537D02*
X125861819Y-59369680D01*
X125861819Y-59369680D02*
X125861819Y-59274442D01*
X125861819Y-59274442D02*
X125909438Y-59131585D01*
X125909438Y-59131585D02*
X125957057Y-59083966D01*
X125861819Y-58226823D02*
X125861819Y-58417299D01*
X125861819Y-58417299D02*
X125909438Y-58512537D01*
X125909438Y-58512537D02*
X125957057Y-58560156D01*
X125957057Y-58560156D02*
X126099914Y-58655394D01*
X126099914Y-58655394D02*
X126290390Y-58703013D01*
X126290390Y-58703013D02*
X126671342Y-58703013D01*
X126671342Y-58703013D02*
X126766580Y-58655394D01*
X126766580Y-58655394D02*
X126814200Y-58607775D01*
X126814200Y-58607775D02*
X126861819Y-58512537D01*
X126861819Y-58512537D02*
X126861819Y-58322061D01*
X126861819Y-58322061D02*
X126814200Y-58226823D01*
X126814200Y-58226823D02*
X126766580Y-58179204D01*
X126766580Y-58179204D02*
X126671342Y-58131585D01*
X126671342Y-58131585D02*
X126433247Y-58131585D01*
X126433247Y-58131585D02*
X126338009Y-58179204D01*
X126338009Y-58179204D02*
X126290390Y-58226823D01*
X126290390Y-58226823D02*
X126242771Y-58322061D01*
X126242771Y-58322061D02*
X126242771Y-58512537D01*
X126242771Y-58512537D02*
X126290390Y-58607775D01*
X126290390Y-58607775D02*
X126338009Y-58655394D01*
X126338009Y-58655394D02*
X126433247Y-58703013D01*
X139659095Y-70574819D02*
X139659095Y-71384342D01*
X139659095Y-71384342D02*
X139706714Y-71479580D01*
X139706714Y-71479580D02*
X139754333Y-71527200D01*
X139754333Y-71527200D02*
X139849571Y-71574819D01*
X139849571Y-71574819D02*
X140040047Y-71574819D01*
X140040047Y-71574819D02*
X140135285Y-71527200D01*
X140135285Y-71527200D02*
X140182904Y-71479580D01*
X140182904Y-71479580D02*
X140230523Y-71384342D01*
X140230523Y-71384342D02*
X140230523Y-70574819D01*
X140611476Y-70574819D02*
X141278142Y-70574819D01*
X141278142Y-70574819D02*
X140849571Y-71574819D01*
X132666142Y-75543580D02*
X132618523Y-75591200D01*
X132618523Y-75591200D02*
X132475666Y-75638819D01*
X132475666Y-75638819D02*
X132380428Y-75638819D01*
X132380428Y-75638819D02*
X132237571Y-75591200D01*
X132237571Y-75591200D02*
X132142333Y-75495961D01*
X132142333Y-75495961D02*
X132094714Y-75400723D01*
X132094714Y-75400723D02*
X132047095Y-75210247D01*
X132047095Y-75210247D02*
X132047095Y-75067390D01*
X132047095Y-75067390D02*
X132094714Y-74876914D01*
X132094714Y-74876914D02*
X132142333Y-74781676D01*
X132142333Y-74781676D02*
X132237571Y-74686438D01*
X132237571Y-74686438D02*
X132380428Y-74638819D01*
X132380428Y-74638819D02*
X132475666Y-74638819D01*
X132475666Y-74638819D02*
X132618523Y-74686438D01*
X132618523Y-74686438D02*
X132666142Y-74734057D01*
X133618523Y-75638819D02*
X133047095Y-75638819D01*
X133332809Y-75638819D02*
X133332809Y-74638819D01*
X133332809Y-74638819D02*
X133237571Y-74781676D01*
X133237571Y-74781676D02*
X133142333Y-74876914D01*
X133142333Y-74876914D02*
X133047095Y-74924533D01*
X133951857Y-74638819D02*
X134570904Y-74638819D01*
X134570904Y-74638819D02*
X134237571Y-75019771D01*
X134237571Y-75019771D02*
X134380428Y-75019771D01*
X134380428Y-75019771D02*
X134475666Y-75067390D01*
X134475666Y-75067390D02*
X134523285Y-75115009D01*
X134523285Y-75115009D02*
X134570904Y-75210247D01*
X134570904Y-75210247D02*
X134570904Y-75448342D01*
X134570904Y-75448342D02*
X134523285Y-75543580D01*
X134523285Y-75543580D02*
X134475666Y-75591200D01*
X134475666Y-75591200D02*
X134380428Y-75638819D01*
X134380428Y-75638819D02*
X134094714Y-75638819D01*
X134094714Y-75638819D02*
X133999476Y-75591200D01*
X133999476Y-75591200D02*
X133951857Y-75543580D01*
X130830580Y-73815966D02*
X130878200Y-73863585D01*
X130878200Y-73863585D02*
X130925819Y-74006442D01*
X130925819Y-74006442D02*
X130925819Y-74101680D01*
X130925819Y-74101680D02*
X130878200Y-74244537D01*
X130878200Y-74244537D02*
X130782961Y-74339775D01*
X130782961Y-74339775D02*
X130687723Y-74387394D01*
X130687723Y-74387394D02*
X130497247Y-74435013D01*
X130497247Y-74435013D02*
X130354390Y-74435013D01*
X130354390Y-74435013D02*
X130163914Y-74387394D01*
X130163914Y-74387394D02*
X130068676Y-74339775D01*
X130068676Y-74339775D02*
X129973438Y-74244537D01*
X129973438Y-74244537D02*
X129925819Y-74101680D01*
X129925819Y-74101680D02*
X129925819Y-74006442D01*
X129925819Y-74006442D02*
X129973438Y-73863585D01*
X129973438Y-73863585D02*
X130021057Y-73815966D01*
X129925819Y-73482632D02*
X129925819Y-72815966D01*
X129925819Y-72815966D02*
X130925819Y-73244537D01*
X136611095Y-85814819D02*
X136611095Y-86624342D01*
X136611095Y-86624342D02*
X136658714Y-86719580D01*
X136658714Y-86719580D02*
X136706333Y-86767200D01*
X136706333Y-86767200D02*
X136801571Y-86814819D01*
X136801571Y-86814819D02*
X136992047Y-86814819D01*
X136992047Y-86814819D02*
X137087285Y-86767200D01*
X137087285Y-86767200D02*
X137134904Y-86719580D01*
X137134904Y-86719580D02*
X137182523Y-86624342D01*
X137182523Y-86624342D02*
X137182523Y-85814819D01*
X137706333Y-86814819D02*
X137896809Y-86814819D01*
X137896809Y-86814819D02*
X137992047Y-86767200D01*
X137992047Y-86767200D02*
X138039666Y-86719580D01*
X138039666Y-86719580D02*
X138134904Y-86576723D01*
X138134904Y-86576723D02*
X138182523Y-86386247D01*
X138182523Y-86386247D02*
X138182523Y-86005295D01*
X138182523Y-86005295D02*
X138134904Y-85910057D01*
X138134904Y-85910057D02*
X138087285Y-85862438D01*
X138087285Y-85862438D02*
X137992047Y-85814819D01*
X137992047Y-85814819D02*
X137801571Y-85814819D01*
X137801571Y-85814819D02*
X137706333Y-85862438D01*
X137706333Y-85862438D02*
X137658714Y-85910057D01*
X137658714Y-85910057D02*
X137611095Y-86005295D01*
X137611095Y-86005295D02*
X137611095Y-86243390D01*
X137611095Y-86243390D02*
X137658714Y-86338628D01*
X137658714Y-86338628D02*
X137706333Y-86386247D01*
X137706333Y-86386247D02*
X137801571Y-86433866D01*
X137801571Y-86433866D02*
X137992047Y-86433866D01*
X137992047Y-86433866D02*
X138087285Y-86386247D01*
X138087285Y-86386247D02*
X138134904Y-86338628D01*
X138134904Y-86338628D02*
X138182523Y-86243390D01*
X133352333Y-55720880D02*
X133304714Y-55768500D01*
X133304714Y-55768500D02*
X133161857Y-55816119D01*
X133161857Y-55816119D02*
X133066619Y-55816119D01*
X133066619Y-55816119D02*
X132923762Y-55768500D01*
X132923762Y-55768500D02*
X132828524Y-55673261D01*
X132828524Y-55673261D02*
X132780905Y-55578023D01*
X132780905Y-55578023D02*
X132733286Y-55387547D01*
X132733286Y-55387547D02*
X132733286Y-55244690D01*
X132733286Y-55244690D02*
X132780905Y-55054214D01*
X132780905Y-55054214D02*
X132828524Y-54958976D01*
X132828524Y-54958976D02*
X132923762Y-54863738D01*
X132923762Y-54863738D02*
X133066619Y-54816119D01*
X133066619Y-54816119D02*
X133161857Y-54816119D01*
X133161857Y-54816119D02*
X133304714Y-54863738D01*
X133304714Y-54863738D02*
X133352333Y-54911357D01*
X134257095Y-54816119D02*
X133780905Y-54816119D01*
X133780905Y-54816119D02*
X133733286Y-55292309D01*
X133733286Y-55292309D02*
X133780905Y-55244690D01*
X133780905Y-55244690D02*
X133876143Y-55197071D01*
X133876143Y-55197071D02*
X134114238Y-55197071D01*
X134114238Y-55197071D02*
X134209476Y-55244690D01*
X134209476Y-55244690D02*
X134257095Y-55292309D01*
X134257095Y-55292309D02*
X134304714Y-55387547D01*
X134304714Y-55387547D02*
X134304714Y-55625642D01*
X134304714Y-55625642D02*
X134257095Y-55720880D01*
X134257095Y-55720880D02*
X134209476Y-55768500D01*
X134209476Y-55768500D02*
X134114238Y-55816119D01*
X134114238Y-55816119D02*
X133876143Y-55816119D01*
X133876143Y-55816119D02*
X133780905Y-55768500D01*
X133780905Y-55768500D02*
X133733286Y-55720880D01*
X133352333Y-57244880D02*
X133304714Y-57292500D01*
X133304714Y-57292500D02*
X133161857Y-57340119D01*
X133161857Y-57340119D02*
X133066619Y-57340119D01*
X133066619Y-57340119D02*
X132923762Y-57292500D01*
X132923762Y-57292500D02*
X132828524Y-57197261D01*
X132828524Y-57197261D02*
X132780905Y-57102023D01*
X132780905Y-57102023D02*
X132733286Y-56911547D01*
X132733286Y-56911547D02*
X132733286Y-56768690D01*
X132733286Y-56768690D02*
X132780905Y-56578214D01*
X132780905Y-56578214D02*
X132828524Y-56482976D01*
X132828524Y-56482976D02*
X132923762Y-56387738D01*
X132923762Y-56387738D02*
X133066619Y-56340119D01*
X133066619Y-56340119D02*
X133161857Y-56340119D01*
X133161857Y-56340119D02*
X133304714Y-56387738D01*
X133304714Y-56387738D02*
X133352333Y-56435357D01*
X134209476Y-56673452D02*
X134209476Y-57340119D01*
X133971381Y-56292500D02*
X133733286Y-57006785D01*
X133733286Y-57006785D02*
X134352333Y-57006785D01*
X168830666Y-58592819D02*
X168830666Y-59307104D01*
X168830666Y-59307104D02*
X168783047Y-59449961D01*
X168783047Y-59449961D02*
X168687809Y-59545200D01*
X168687809Y-59545200D02*
X168544952Y-59592819D01*
X168544952Y-59592819D02*
X168449714Y-59592819D01*
X169211619Y-58592819D02*
X169830666Y-58592819D01*
X169830666Y-58592819D02*
X169497333Y-58973771D01*
X169497333Y-58973771D02*
X169640190Y-58973771D01*
X169640190Y-58973771D02*
X169735428Y-59021390D01*
X169735428Y-59021390D02*
X169783047Y-59069009D01*
X169783047Y-59069009D02*
X169830666Y-59164247D01*
X169830666Y-59164247D02*
X169830666Y-59402342D01*
X169830666Y-59402342D02*
X169783047Y-59497580D01*
X169783047Y-59497580D02*
X169735428Y-59545200D01*
X169735428Y-59545200D02*
X169640190Y-59592819D01*
X169640190Y-59592819D02*
X169354476Y-59592819D01*
X169354476Y-59592819D02*
X169259238Y-59545200D01*
X169259238Y-59545200D02*
X169211619Y-59497580D01*
X119046666Y-56560819D02*
X119046666Y-57275104D01*
X119046666Y-57275104D02*
X118999047Y-57417961D01*
X118999047Y-57417961D02*
X118903809Y-57513200D01*
X118903809Y-57513200D02*
X118760952Y-57560819D01*
X118760952Y-57560819D02*
X118665714Y-57560819D01*
X120046666Y-57560819D02*
X119475238Y-57560819D01*
X119760952Y-57560819D02*
X119760952Y-56560819D01*
X119760952Y-56560819D02*
X119665714Y-56703676D01*
X119665714Y-56703676D02*
X119570476Y-56798914D01*
X119570476Y-56798914D02*
X119475238Y-56846533D01*
X123616819Y-52657333D02*
X124331104Y-52657333D01*
X124331104Y-52657333D02*
X124473961Y-52704952D01*
X124473961Y-52704952D02*
X124569200Y-52800190D01*
X124569200Y-52800190D02*
X124616819Y-52943047D01*
X124616819Y-52943047D02*
X124616819Y-53038285D01*
X123712057Y-52228761D02*
X123664438Y-52181142D01*
X123664438Y-52181142D02*
X123616819Y-52085904D01*
X123616819Y-52085904D02*
X123616819Y-51847809D01*
X123616819Y-51847809D02*
X123664438Y-51752571D01*
X123664438Y-51752571D02*
X123712057Y-51704952D01*
X123712057Y-51704952D02*
X123807295Y-51657333D01*
X123807295Y-51657333D02*
X123902533Y-51657333D01*
X123902533Y-51657333D02*
X124045390Y-51704952D01*
X124045390Y-51704952D02*
X124616819Y-52276380D01*
X124616819Y-52276380D02*
X124616819Y-51657333D01*
X137238142Y-88846819D02*
X136904809Y-88370628D01*
X136666714Y-88846819D02*
X136666714Y-87846819D01*
X136666714Y-87846819D02*
X137047666Y-87846819D01*
X137047666Y-87846819D02*
X137142904Y-87894438D01*
X137142904Y-87894438D02*
X137190523Y-87942057D01*
X137190523Y-87942057D02*
X137238142Y-88037295D01*
X137238142Y-88037295D02*
X137238142Y-88180152D01*
X137238142Y-88180152D02*
X137190523Y-88275390D01*
X137190523Y-88275390D02*
X137142904Y-88323009D01*
X137142904Y-88323009D02*
X137047666Y-88370628D01*
X137047666Y-88370628D02*
X136666714Y-88370628D01*
X138190523Y-88846819D02*
X137619095Y-88846819D01*
X137904809Y-88846819D02*
X137904809Y-87846819D01*
X137904809Y-87846819D02*
X137809571Y-87989676D01*
X137809571Y-87989676D02*
X137714333Y-88084914D01*
X137714333Y-88084914D02*
X137619095Y-88132533D01*
X139142904Y-88846819D02*
X138571476Y-88846819D01*
X138857190Y-88846819D02*
X138857190Y-87846819D01*
X138857190Y-87846819D02*
X138761952Y-87989676D01*
X138761952Y-87989676D02*
X138666714Y-88084914D01*
X138666714Y-88084914D02*
X138571476Y-88132533D01*
X133352333Y-58768880D02*
X133304714Y-58816500D01*
X133304714Y-58816500D02*
X133161857Y-58864119D01*
X133161857Y-58864119D02*
X133066619Y-58864119D01*
X133066619Y-58864119D02*
X132923762Y-58816500D01*
X132923762Y-58816500D02*
X132828524Y-58721261D01*
X132828524Y-58721261D02*
X132780905Y-58626023D01*
X132780905Y-58626023D02*
X132733286Y-58435547D01*
X132733286Y-58435547D02*
X132733286Y-58292690D01*
X132733286Y-58292690D02*
X132780905Y-58102214D01*
X132780905Y-58102214D02*
X132828524Y-58006976D01*
X132828524Y-58006976D02*
X132923762Y-57911738D01*
X132923762Y-57911738D02*
X133066619Y-57864119D01*
X133066619Y-57864119D02*
X133161857Y-57864119D01*
X133161857Y-57864119D02*
X133304714Y-57911738D01*
X133304714Y-57911738D02*
X133352333Y-57959357D01*
X134304714Y-58864119D02*
X133733286Y-58864119D01*
X134019000Y-58864119D02*
X134019000Y-57864119D01*
X134019000Y-57864119D02*
X133923762Y-58006976D01*
X133923762Y-58006976D02*
X133828524Y-58102214D01*
X133828524Y-58102214D02*
X133733286Y-58149833D01*
X163956094Y-63717818D02*
X163956094Y-64527341D01*
X163956094Y-64527341D02*
X164003713Y-64622579D01*
X164003713Y-64622579D02*
X164051332Y-64670199D01*
X164051332Y-64670199D02*
X164146570Y-64717818D01*
X164146570Y-64717818D02*
X164337046Y-64717818D01*
X164337046Y-64717818D02*
X164432284Y-64670199D01*
X164432284Y-64670199D02*
X164479903Y-64622579D01*
X164479903Y-64622579D02*
X164527522Y-64527341D01*
X164527522Y-64527341D02*
X164527522Y-63717818D01*
X164908475Y-63717818D02*
X165527522Y-63717818D01*
X165527522Y-63717818D02*
X165194189Y-64098770D01*
X165194189Y-64098770D02*
X165337046Y-64098770D01*
X165337046Y-64098770D02*
X165432284Y-64146389D01*
X165432284Y-64146389D02*
X165479903Y-64194008D01*
X165479903Y-64194008D02*
X165527522Y-64289246D01*
X165527522Y-64289246D02*
X165527522Y-64527341D01*
X165527522Y-64527341D02*
X165479903Y-64622579D01*
X165479903Y-64622579D02*
X165432284Y-64670199D01*
X165432284Y-64670199D02*
X165337046Y-64717818D01*
X165337046Y-64717818D02*
X165051332Y-64717818D01*
X165051332Y-64717818D02*
X164956094Y-64670199D01*
X164956094Y-64670199D02*
X164908475Y-64622579D01*
X141183334Y-65225819D02*
X140850001Y-64749628D01*
X140611906Y-65225819D02*
X140611906Y-64225819D01*
X140611906Y-64225819D02*
X140992858Y-64225819D01*
X140992858Y-64225819D02*
X141088096Y-64273438D01*
X141088096Y-64273438D02*
X141135715Y-64321057D01*
X141135715Y-64321057D02*
X141183334Y-64416295D01*
X141183334Y-64416295D02*
X141183334Y-64559152D01*
X141183334Y-64559152D02*
X141135715Y-64654390D01*
X141135715Y-64654390D02*
X141088096Y-64702009D01*
X141088096Y-64702009D02*
X140992858Y-64749628D01*
X140992858Y-64749628D02*
X140611906Y-64749628D01*
X142040477Y-64559152D02*
X142040477Y-65225819D01*
X141802382Y-64178200D02*
X141564287Y-64892485D01*
X141564287Y-64892485D02*
X142183334Y-64892485D01*
X157947333Y-64622579D02*
X157899714Y-64670199D01*
X157899714Y-64670199D02*
X157756857Y-64717818D01*
X157756857Y-64717818D02*
X157661619Y-64717818D01*
X157661619Y-64717818D02*
X157518762Y-64670199D01*
X157518762Y-64670199D02*
X157423524Y-64574960D01*
X157423524Y-64574960D02*
X157375905Y-64479722D01*
X157375905Y-64479722D02*
X157328286Y-64289246D01*
X157328286Y-64289246D02*
X157328286Y-64146389D01*
X157328286Y-64146389D02*
X157375905Y-63955913D01*
X157375905Y-63955913D02*
X157423524Y-63860675D01*
X157423524Y-63860675D02*
X157518762Y-63765437D01*
X157518762Y-63765437D02*
X157661619Y-63717818D01*
X157661619Y-63717818D02*
X157756857Y-63717818D01*
X157756857Y-63717818D02*
X157899714Y-63765437D01*
X157899714Y-63765437D02*
X157947333Y-63813056D01*
X158518762Y-64146389D02*
X158423524Y-64098770D01*
X158423524Y-64098770D02*
X158375905Y-64051151D01*
X158375905Y-64051151D02*
X158328286Y-63955913D01*
X158328286Y-63955913D02*
X158328286Y-63908294D01*
X158328286Y-63908294D02*
X158375905Y-63813056D01*
X158375905Y-63813056D02*
X158423524Y-63765437D01*
X158423524Y-63765437D02*
X158518762Y-63717818D01*
X158518762Y-63717818D02*
X158709238Y-63717818D01*
X158709238Y-63717818D02*
X158804476Y-63765437D01*
X158804476Y-63765437D02*
X158852095Y-63813056D01*
X158852095Y-63813056D02*
X158899714Y-63908294D01*
X158899714Y-63908294D02*
X158899714Y-63955913D01*
X158899714Y-63955913D02*
X158852095Y-64051151D01*
X158852095Y-64051151D02*
X158804476Y-64098770D01*
X158804476Y-64098770D02*
X158709238Y-64146389D01*
X158709238Y-64146389D02*
X158518762Y-64146389D01*
X158518762Y-64146389D02*
X158423524Y-64194008D01*
X158423524Y-64194008D02*
X158375905Y-64241627D01*
X158375905Y-64241627D02*
X158328286Y-64336865D01*
X158328286Y-64336865D02*
X158328286Y-64527341D01*
X158328286Y-64527341D02*
X158375905Y-64622579D01*
X158375905Y-64622579D02*
X158423524Y-64670199D01*
X158423524Y-64670199D02*
X158518762Y-64717818D01*
X158518762Y-64717818D02*
X158709238Y-64717818D01*
X158709238Y-64717818D02*
X158804476Y-64670199D01*
X158804476Y-64670199D02*
X158852095Y-64622579D01*
X158852095Y-64622579D02*
X158899714Y-64527341D01*
X158899714Y-64527341D02*
X158899714Y-64336865D01*
X158899714Y-64336865D02*
X158852095Y-64241627D01*
X158852095Y-64241627D02*
X158804476Y-64194008D01*
X158804476Y-64194008D02*
X158709238Y-64146389D01*
X136611333Y-51922580D02*
X136563714Y-51970200D01*
X136563714Y-51970200D02*
X136420857Y-52017819D01*
X136420857Y-52017819D02*
X136325619Y-52017819D01*
X136325619Y-52017819D02*
X136182762Y-51970200D01*
X136182762Y-51970200D02*
X136087524Y-51874961D01*
X136087524Y-51874961D02*
X136039905Y-51779723D01*
X136039905Y-51779723D02*
X135992286Y-51589247D01*
X135992286Y-51589247D02*
X135992286Y-51446390D01*
X135992286Y-51446390D02*
X136039905Y-51255914D01*
X136039905Y-51255914D02*
X136087524Y-51160676D01*
X136087524Y-51160676D02*
X136182762Y-51065438D01*
X136182762Y-51065438D02*
X136325619Y-51017819D01*
X136325619Y-51017819D02*
X136420857Y-51017819D01*
X136420857Y-51017819D02*
X136563714Y-51065438D01*
X136563714Y-51065438D02*
X136611333Y-51113057D01*
X136944667Y-51017819D02*
X137563714Y-51017819D01*
X137563714Y-51017819D02*
X137230381Y-51398771D01*
X137230381Y-51398771D02*
X137373238Y-51398771D01*
X137373238Y-51398771D02*
X137468476Y-51446390D01*
X137468476Y-51446390D02*
X137516095Y-51494009D01*
X137516095Y-51494009D02*
X137563714Y-51589247D01*
X137563714Y-51589247D02*
X137563714Y-51827342D01*
X137563714Y-51827342D02*
X137516095Y-51922580D01*
X137516095Y-51922580D02*
X137468476Y-51970200D01*
X137468476Y-51970200D02*
X137373238Y-52017819D01*
X137373238Y-52017819D02*
X137087524Y-52017819D01*
X137087524Y-52017819D02*
X136992286Y-51970200D01*
X136992286Y-51970200D02*
X136944667Y-51922580D01*
X135627143Y-60050580D02*
X135579524Y-60098200D01*
X135579524Y-60098200D02*
X135436667Y-60145819D01*
X135436667Y-60145819D02*
X135341429Y-60145819D01*
X135341429Y-60145819D02*
X135198572Y-60098200D01*
X135198572Y-60098200D02*
X135103334Y-60002961D01*
X135103334Y-60002961D02*
X135055715Y-59907723D01*
X135055715Y-59907723D02*
X135008096Y-59717247D01*
X135008096Y-59717247D02*
X135008096Y-59574390D01*
X135008096Y-59574390D02*
X135055715Y-59383914D01*
X135055715Y-59383914D02*
X135103334Y-59288676D01*
X135103334Y-59288676D02*
X135198572Y-59193438D01*
X135198572Y-59193438D02*
X135341429Y-59145819D01*
X135341429Y-59145819D02*
X135436667Y-59145819D01*
X135436667Y-59145819D02*
X135579524Y-59193438D01*
X135579524Y-59193438D02*
X135627143Y-59241057D01*
X136579524Y-60145819D02*
X136008096Y-60145819D01*
X136293810Y-60145819D02*
X136293810Y-59145819D01*
X136293810Y-59145819D02*
X136198572Y-59288676D01*
X136198572Y-59288676D02*
X136103334Y-59383914D01*
X136103334Y-59383914D02*
X136008096Y-59431533D01*
X136960477Y-59241057D02*
X137008096Y-59193438D01*
X137008096Y-59193438D02*
X137103334Y-59145819D01*
X137103334Y-59145819D02*
X137341429Y-59145819D01*
X137341429Y-59145819D02*
X137436667Y-59193438D01*
X137436667Y-59193438D02*
X137484286Y-59241057D01*
X137484286Y-59241057D02*
X137531905Y-59336295D01*
X137531905Y-59336295D02*
X137531905Y-59431533D01*
X137531905Y-59431533D02*
X137484286Y-59574390D01*
X137484286Y-59574390D02*
X136912858Y-60145819D01*
X136912858Y-60145819D02*
X137531905Y-60145819D01*
X141183334Y-67257819D02*
X140850001Y-66781628D01*
X140611906Y-67257819D02*
X140611906Y-66257819D01*
X140611906Y-66257819D02*
X140992858Y-66257819D01*
X140992858Y-66257819D02*
X141088096Y-66305438D01*
X141088096Y-66305438D02*
X141135715Y-66353057D01*
X141135715Y-66353057D02*
X141183334Y-66448295D01*
X141183334Y-66448295D02*
X141183334Y-66591152D01*
X141183334Y-66591152D02*
X141135715Y-66686390D01*
X141135715Y-66686390D02*
X141088096Y-66734009D01*
X141088096Y-66734009D02*
X140992858Y-66781628D01*
X140992858Y-66781628D02*
X140611906Y-66781628D01*
X142040477Y-66257819D02*
X141850001Y-66257819D01*
X141850001Y-66257819D02*
X141754763Y-66305438D01*
X141754763Y-66305438D02*
X141707144Y-66353057D01*
X141707144Y-66353057D02*
X141611906Y-66495914D01*
X141611906Y-66495914D02*
X141564287Y-66686390D01*
X141564287Y-66686390D02*
X141564287Y-67067342D01*
X141564287Y-67067342D02*
X141611906Y-67162580D01*
X141611906Y-67162580D02*
X141659525Y-67210200D01*
X141659525Y-67210200D02*
X141754763Y-67257819D01*
X141754763Y-67257819D02*
X141945239Y-67257819D01*
X141945239Y-67257819D02*
X142040477Y-67210200D01*
X142040477Y-67210200D02*
X142088096Y-67162580D01*
X142088096Y-67162580D02*
X142135715Y-67067342D01*
X142135715Y-67067342D02*
X142135715Y-66829247D01*
X142135715Y-66829247D02*
X142088096Y-66734009D01*
X142088096Y-66734009D02*
X142040477Y-66686390D01*
X142040477Y-66686390D02*
X141945239Y-66638771D01*
X141945239Y-66638771D02*
X141754763Y-66638771D01*
X141754763Y-66638771D02*
X141659525Y-66686390D01*
X141659525Y-66686390D02*
X141611906Y-66734009D01*
X141611906Y-66734009D02*
X141564287Y-66829247D01*
X162940095Y-46953820D02*
X162940095Y-47763343D01*
X162940095Y-47763343D02*
X162987714Y-47858581D01*
X162987714Y-47858581D02*
X163035333Y-47906201D01*
X163035333Y-47906201D02*
X163130571Y-47953820D01*
X163130571Y-47953820D02*
X163321047Y-47953820D01*
X163321047Y-47953820D02*
X163416285Y-47906201D01*
X163416285Y-47906201D02*
X163463904Y-47858581D01*
X163463904Y-47858581D02*
X163511523Y-47763343D01*
X163511523Y-47763343D02*
X163511523Y-46953820D01*
X164511523Y-47953820D02*
X163940095Y-47953820D01*
X164225809Y-47953820D02*
X164225809Y-46953820D01*
X164225809Y-46953820D02*
X164130571Y-47096677D01*
X164130571Y-47096677D02*
X164035333Y-47191915D01*
X164035333Y-47191915D02*
X163940095Y-47239534D01*
X140080095Y-62193819D02*
X140080095Y-63003342D01*
X140080095Y-63003342D02*
X140127714Y-63098580D01*
X140127714Y-63098580D02*
X140175333Y-63146200D01*
X140175333Y-63146200D02*
X140270571Y-63193819D01*
X140270571Y-63193819D02*
X140461047Y-63193819D01*
X140461047Y-63193819D02*
X140556285Y-63146200D01*
X140556285Y-63146200D02*
X140603904Y-63098580D01*
X140603904Y-63098580D02*
X140651523Y-63003342D01*
X140651523Y-63003342D02*
X140651523Y-62193819D01*
X141556285Y-62527152D02*
X141556285Y-63193819D01*
X141318190Y-62146200D02*
X141080095Y-62860485D01*
X141080095Y-62860485D02*
X141699142Y-62860485D01*
X141183334Y-69289819D02*
X140850001Y-68813628D01*
X140611906Y-69289819D02*
X140611906Y-68289819D01*
X140611906Y-68289819D02*
X140992858Y-68289819D01*
X140992858Y-68289819D02*
X141088096Y-68337438D01*
X141088096Y-68337438D02*
X141135715Y-68385057D01*
X141135715Y-68385057D02*
X141183334Y-68480295D01*
X141183334Y-68480295D02*
X141183334Y-68623152D01*
X141183334Y-68623152D02*
X141135715Y-68718390D01*
X141135715Y-68718390D02*
X141088096Y-68766009D01*
X141088096Y-68766009D02*
X140992858Y-68813628D01*
X140992858Y-68813628D02*
X140611906Y-68813628D01*
X142088096Y-68289819D02*
X141611906Y-68289819D01*
X141611906Y-68289819D02*
X141564287Y-68766009D01*
X141564287Y-68766009D02*
X141611906Y-68718390D01*
X141611906Y-68718390D02*
X141707144Y-68670771D01*
X141707144Y-68670771D02*
X141945239Y-68670771D01*
X141945239Y-68670771D02*
X142040477Y-68718390D01*
X142040477Y-68718390D02*
X142088096Y-68766009D01*
X142088096Y-68766009D02*
X142135715Y-68861247D01*
X142135715Y-68861247D02*
X142135715Y-69099342D01*
X142135715Y-69099342D02*
X142088096Y-69194580D01*
X142088096Y-69194580D02*
X142040477Y-69242200D01*
X142040477Y-69242200D02*
X141945239Y-69289819D01*
X141945239Y-69289819D02*
X141707144Y-69289819D01*
X141707144Y-69289819D02*
X141611906Y-69242200D01*
X141611906Y-69242200D02*
X141564287Y-69194580D01*
X143128095Y-46953820D02*
X143128095Y-47763343D01*
X143128095Y-47763343D02*
X143175714Y-47858581D01*
X143175714Y-47858581D02*
X143223333Y-47906201D01*
X143223333Y-47906201D02*
X143318571Y-47953820D01*
X143318571Y-47953820D02*
X143509047Y-47953820D01*
X143509047Y-47953820D02*
X143604285Y-47906201D01*
X143604285Y-47906201D02*
X143651904Y-47858581D01*
X143651904Y-47858581D02*
X143699523Y-47763343D01*
X143699523Y-47763343D02*
X143699523Y-46953820D01*
X144128095Y-47049058D02*
X144175714Y-47001439D01*
X144175714Y-47001439D02*
X144270952Y-46953820D01*
X144270952Y-46953820D02*
X144509047Y-46953820D01*
X144509047Y-46953820D02*
X144604285Y-47001439D01*
X144604285Y-47001439D02*
X144651904Y-47049058D01*
X144651904Y-47049058D02*
X144699523Y-47144296D01*
X144699523Y-47144296D02*
X144699523Y-47239534D01*
X144699523Y-47239534D02*
X144651904Y-47382391D01*
X144651904Y-47382391D02*
X144080476Y-47953820D01*
X144080476Y-47953820D02*
X144699523Y-47953820D01*
D11*
%TO.C,R15*%
X151529064Y-90610000D02*
X147174936Y-90610000D01*
X151529064Y-87190000D02*
X147174936Y-87190000D01*
%TO.C,R14*%
X125290000Y-89045064D02*
X125290000Y-84690936D01*
X128710000Y-89045064D02*
X128710000Y-84690936D01*
%TO.C,R10*%
X121090000Y-80120936D02*
X121090000Y-84475064D01*
X117670000Y-80120936D02*
X117670000Y-84475064D01*
%TO.C,R9*%
X150222936Y-67886000D02*
X154577064Y-67886000D01*
X150222936Y-71306000D02*
X154577064Y-71306000D01*
%TO.C,R8*%
X154575064Y-63822000D02*
X150220936Y-63822000D01*
X154575064Y-67242000D02*
X150220936Y-67242000D01*
%TO.C,R7*%
X166438000Y-52176936D02*
X166438000Y-56531064D01*
X169858000Y-52176936D02*
X169858000Y-56531064D01*
%TO.C,R2*%
X126856936Y-45534000D02*
X131211064Y-45534000D01*
X126856936Y-48954000D02*
X131211064Y-48954000D01*
%TO.C,R1*%
X134984936Y-45534000D02*
X139339064Y-45534000D01*
X134984936Y-48954000D02*
X139339064Y-48954000D01*
%TO.C,C2*%
X123669248Y-75465000D02*
X124191752Y-75465000D01*
X123669248Y-76935000D02*
X124191752Y-76935000D01*
D12*
%TO.C,U6*%
X154372000Y-71884000D02*
X160472000Y-71884000D01*
X154372000Y-78484000D02*
X154372000Y-71884000D01*
X160472000Y-71884000D02*
X160472000Y-72019000D01*
X160472000Y-78484000D02*
X154372000Y-78484000D01*
X160472000Y-78484000D02*
X160472000Y-78349000D01*
D13*
X150442000Y-72899000D02*
G75*
G02*
X150242000Y-72899000I-100000J0D01*
G01*
X150242000Y-72899000D02*
G75*
G02*
X150442000Y-72899000I100000J0D01*
G01*
D11*
%TO.C,R13*%
X140777776Y-89901500D02*
X141287224Y-89901500D01*
X140777776Y-90946500D02*
X141287224Y-90946500D01*
D14*
%TO.C,U5*%
G36*
X134008400Y-68879500D02*
G01*
X133754400Y-68879500D01*
X133754400Y-68498500D01*
X134008400Y-68498500D01*
X134008400Y-68879500D01*
G37*
G36*
X128589501Y-72798400D02*
G01*
X128208500Y-72798400D01*
X128208500Y-72544400D01*
X128589501Y-72544400D01*
X128589501Y-72798400D01*
G37*
G36*
X127089501Y-62333600D02*
G01*
X126708501Y-62333600D01*
X126708501Y-62079600D01*
X127089501Y-62079600D01*
X127089501Y-62333600D01*
G37*
G36*
X123543600Y-68379501D02*
G01*
X123289600Y-68379501D01*
X123289600Y-67998501D01*
X123543600Y-67998501D01*
X123543600Y-68379501D01*
G37*
D15*
X132281200Y-71071200D02*
X132281200Y-70661440D01*
X132281200Y-64216560D02*
X132281200Y-63806800D01*
X132281200Y-63806800D02*
X131871440Y-63806800D01*
X131871440Y-71071200D02*
X132281200Y-71071200D01*
X125426560Y-63806800D02*
X125016800Y-63806800D01*
X125016800Y-71071200D02*
X125426560Y-71071200D01*
X125016800Y-70661440D02*
X125016800Y-71071200D01*
X125016800Y-63806800D02*
X125016800Y-64216560D01*
D12*
%TO.C,U8*%
X154372000Y-80012000D02*
X160472000Y-80012000D01*
X154372000Y-86612000D02*
X154372000Y-80012000D01*
X160472000Y-80012000D02*
X160472000Y-80147000D01*
X160472000Y-86612000D02*
X154372000Y-86612000D01*
X160472000Y-86612000D02*
X160472000Y-86477000D01*
D13*
X150442000Y-81027000D02*
G75*
G02*
X150242000Y-81027000I-100000J0D01*
G01*
X150242000Y-81027000D02*
G75*
G02*
X150442000Y-81027000I100000J0D01*
G01*
D11*
%TO.C,R3*%
X127408500Y-56019076D02*
X127408500Y-56528524D01*
X128453500Y-56019076D02*
X128453500Y-56528524D01*
%TO.C,R12*%
X140777776Y-91933500D02*
X141287224Y-91933500D01*
X140777776Y-92978500D02*
X141287224Y-92978500D01*
%TO.C,C10*%
X121833000Y-68068533D02*
X121833000Y-68361067D01*
X122853000Y-68068533D02*
X122853000Y-68361067D01*
%TO.C,C11*%
X127784733Y-75679300D02*
X128077267Y-75679300D01*
X127784733Y-76699300D02*
X128077267Y-76699300D01*
%TO.C,C14*%
X157913233Y-87374000D02*
X158205767Y-87374000D01*
X157913233Y-88394000D02*
X158205767Y-88394000D01*
%TO.C,C9*%
X130907767Y-59423300D02*
X130615233Y-59423300D01*
X130907767Y-60443300D02*
X130615233Y-60443300D01*
%TO.C,C15*%
X136656767Y-82802000D02*
X136364233Y-82802000D01*
X136656767Y-83822000D02*
X136364233Y-83822000D01*
%TO.C,C6*%
X126917000Y-56127533D02*
X126917000Y-56420067D01*
X125897000Y-56127533D02*
X125897000Y-56420067D01*
D12*
%TO.C,U7*%
X140182000Y-71884000D02*
X140182000Y-72019000D01*
X140182000Y-71884000D02*
X146282000Y-71884000D01*
X140182000Y-78484000D02*
X140182000Y-78349000D01*
X146282000Y-71884000D02*
X146282000Y-78484000D01*
X146282000Y-78484000D02*
X140182000Y-78484000D01*
D13*
X150412000Y-77469000D02*
G75*
G02*
X150212000Y-77469000I-100000J0D01*
G01*
X150212000Y-77469000D02*
G75*
G02*
X150412000Y-77469000I100000J0D01*
G01*
D11*
%TO.C,C13*%
X136364233Y-74674000D02*
X136656767Y-74674000D01*
X136364233Y-75694000D02*
X136656767Y-75694000D01*
%TO.C,C7*%
X129961000Y-76043033D02*
X129961000Y-76335567D01*
X130981000Y-76043033D02*
X130981000Y-76335567D01*
D12*
%TO.C,U9*%
X140182000Y-80012000D02*
X140182000Y-80147000D01*
X140182000Y-80012000D02*
X146282000Y-80012000D01*
X140182000Y-86612000D02*
X140182000Y-86477000D01*
X146282000Y-80012000D02*
X146282000Y-86612000D01*
X146282000Y-86612000D02*
X140182000Y-86612000D01*
D13*
X150412000Y-85597000D02*
G75*
G02*
X150212000Y-85597000I-100000J0D01*
G01*
X150212000Y-85597000D02*
G75*
G02*
X150412000Y-85597000I100000J0D01*
G01*
D11*
%TO.C,C5*%
X130907767Y-54851300D02*
X130615233Y-54851300D01*
X130907767Y-55871300D02*
X130615233Y-55871300D01*
%TO.C,C4*%
X130907767Y-56375300D02*
X130615233Y-56375300D01*
X130907767Y-57395300D02*
X130615233Y-57395300D01*
%TO.C,J3*%
X170494000Y-62738000D02*
X170494000Y-70418000D01*
X167834000Y-70418000D02*
X170494000Y-70418000D01*
X167834000Y-62738000D02*
X170494000Y-62738000D01*
X167834000Y-62738000D02*
X167834000Y-70418000D01*
X167834000Y-61468000D02*
X167834000Y-60138000D01*
X167834000Y-60138000D02*
X169164000Y-60138000D01*
%TO.C,J1*%
X120710000Y-60706000D02*
X120710000Y-76006000D01*
X118050000Y-76006000D02*
X120710000Y-76006000D01*
X118050000Y-60706000D02*
X120710000Y-60706000D01*
X118050000Y-60706000D02*
X118050000Y-76006000D01*
X118050000Y-59436000D02*
X118050000Y-58106000D01*
X118050000Y-58106000D02*
X119380000Y-58106000D01*
%TO.C,J2*%
X132902000Y-53654000D02*
X132902000Y-50994000D01*
X127762000Y-53654000D02*
X132902000Y-53654000D01*
X127762000Y-53654000D02*
X127762000Y-50994000D01*
X127762000Y-50994000D02*
X132902000Y-50994000D01*
X126492000Y-53654000D02*
X125162000Y-53654000D01*
X125162000Y-53654000D02*
X125162000Y-52324000D01*
%TO.C,R11*%
X140777776Y-87869500D02*
X141287224Y-87869500D01*
X140777776Y-88914500D02*
X141287224Y-88914500D01*
%TO.C,C1*%
X130907767Y-57899300D02*
X130615233Y-57899300D01*
X130907767Y-58919300D02*
X130615233Y-58919300D01*
D12*
%TO.C,U3*%
X157841000Y-56390999D02*
X163941000Y-56390999D01*
X157841000Y-62990999D02*
X157841000Y-56390999D01*
X163941000Y-56390999D02*
X163941000Y-56525999D01*
X163941000Y-62990999D02*
X157841000Y-62990999D01*
X163941000Y-62990999D02*
X163941000Y-62855999D01*
D13*
X153911000Y-57405999D02*
G75*
G02*
X153711000Y-57405999I-100000J0D01*
G01*
X153711000Y-57405999D02*
G75*
G02*
X153911000Y-57405999I100000J0D01*
G01*
D11*
%TO.C,R4*%
X144246777Y-64248500D02*
X144756225Y-64248500D01*
X144246777Y-65293500D02*
X144756225Y-65293500D01*
%TO.C,C8*%
X161382233Y-63752999D02*
X161674767Y-63752999D01*
X161382233Y-64772999D02*
X161674767Y-64772999D01*
%TO.C,C3*%
X139833233Y-51053000D02*
X140125767Y-51053000D01*
X139833233Y-52073000D02*
X140125767Y-52073000D01*
%TO.C,C12*%
X140125768Y-59181000D02*
X139833234Y-59181000D01*
X140125768Y-60201000D02*
X139833234Y-60201000D01*
%TO.C,R6*%
X144246777Y-66280500D02*
X144756225Y-66280500D01*
X144246777Y-67325500D02*
X144756225Y-67325500D01*
D12*
%TO.C,U1*%
X157841000Y-48263000D02*
X163941000Y-48263000D01*
X157841000Y-54863000D02*
X157841000Y-48263000D01*
X163941000Y-48263000D02*
X163941000Y-48398000D01*
X163941000Y-54863000D02*
X157841000Y-54863000D01*
X163941000Y-54863000D02*
X163941000Y-54728000D01*
D13*
X153911000Y-49278000D02*
G75*
G02*
X153711000Y-49278000I-100000J0D01*
G01*
X153711000Y-49278000D02*
G75*
G02*
X153911000Y-49278000I100000J0D01*
G01*
D12*
%TO.C,U4*%
X143651000Y-56391000D02*
X143651000Y-56526000D01*
X143651000Y-56391000D02*
X149751000Y-56391000D01*
X143651000Y-62991000D02*
X143651000Y-62856000D01*
X149751000Y-56391000D02*
X149751000Y-62991000D01*
X149751000Y-62991000D02*
X143651000Y-62991000D01*
D13*
X153881000Y-61976000D02*
G75*
G02*
X153681000Y-61976000I-100000J0D01*
G01*
X153681000Y-61976000D02*
G75*
G02*
X153881000Y-61976000I100000J0D01*
G01*
D11*
%TO.C,R5*%
X144246777Y-68312500D02*
X144756225Y-68312500D01*
X144246777Y-69357500D02*
X144756225Y-69357500D01*
D12*
%TO.C,U2*%
X143651000Y-48263000D02*
X143651000Y-48398000D01*
X143651000Y-48263000D02*
X149751000Y-48263000D01*
X143651000Y-54863000D02*
X143651000Y-54728000D01*
X149751000Y-48263000D02*
X149751000Y-54863000D01*
X149751000Y-54863000D02*
X143651000Y-54863000D01*
D13*
X153881000Y-53848000D02*
G75*
G02*
X153681000Y-53848000I-100000J0D01*
G01*
X153681000Y-53848000D02*
G75*
G02*
X153881000Y-53848000I100000J0D01*
G01*
%TD*%
D16*
X169164000Y-69088000D03*
X169164000Y-66548000D03*
X169164000Y-64008000D03*
X169164000Y-61468000D03*
X119380000Y-74676000D03*
X119380000Y-72136000D03*
X119380000Y-69596000D03*
X119380000Y-67056000D03*
X119380000Y-64516000D03*
X119380000Y-61976000D03*
X119380000Y-59436000D03*
X131572000Y-52324000D03*
X129032000Y-52324000D03*
X126492000Y-52324000D03*
M02*
