%TF.GenerationSoftware,KiCad,Pcbnew,8.0.7*%
%TF.CreationDate,2025-02-15T17:42:46+02:00*%
%TF.ProjectId,stepper-motor-controller,73746570-7065-4722-9d6d-6f746f722d63,rev?*%
%TF.SameCoordinates,Original*%
%TF.FileFunction,Copper,L2,Bot*%
%TF.FilePolarity,Positive*%
%FSLAX46Y46*%
G04 Gerber Fmt 4.6, Leading zero omitted, Abs format (unit mm)*
G04 Created by KiCad (PCBNEW 8.0.7) date 2025-02-15 17:42:46*
%MOMM*%
%LPD*%
G01*
G04 APERTURE LIST*
%TA.AperFunction,ComponentPad*%
%ADD10O,1.700000X1.700000*%
%TD*%
%TA.AperFunction,ComponentPad*%
%ADD11R,1.700000X1.700000*%
%TD*%
%TA.AperFunction,ViaPad*%
%ADD12C,0.600000*%
%TD*%
%TA.AperFunction,Conductor*%
%ADD13C,0.200000*%
%TD*%
%TA.AperFunction,Conductor*%
%ADD14C,0.500000*%
%TD*%
%ADD15C,0.300000*%
%ADD16C,0.350000*%
G04 APERTURE END LIST*
D10*
%TO.P,J3,4,Pin_4*%
%TO.N,/BMA2*%
X169164000Y-69088000D03*
%TO.P,J3,3,Pin_3*%
%TO.N,/BMA1*%
X169164000Y-66548000D03*
%TO.P,J3,2,Pin_2*%
%TO.N,/BMB2*%
X169164000Y-64008000D03*
D11*
%TO.P,J3,1,Pin_1*%
%TO.N,/BMB1*%
X169164000Y-61468000D03*
%TD*%
D10*
%TO.P,J1,7,Pin_7*%
%TO.N,/TMC5160A/DIAG1*%
X119380000Y-74676000D03*
%TO.P,J1,6,Pin_6*%
%TO.N,/TMC5160A/DIAG0*%
X119380000Y-72136000D03*
%TO.P,J1,5,Pin_5*%
%TO.N,/TMC5160A/ENABLE*%
X119380000Y-69596000D03*
%TO.P,J1,4,Pin_4*%
%TO.N,/TMC5160A/MISO*%
X119380000Y-67056000D03*
%TO.P,J1,3,Pin_3*%
%TO.N,/TMC5160A/MOSI*%
X119380000Y-64516000D03*
%TO.P,J1,2,Pin_2*%
%TO.N,/TMC5160A/SCK*%
X119380000Y-61976000D03*
D11*
%TO.P,J1,1,Pin_1*%
%TO.N,/TMC5160A/CSN*%
X119380000Y-59436000D03*
%TD*%
D10*
%TO.P,J2,3,Pin_3*%
%TO.N,VC*%
X131572000Y-52324000D03*
%TO.P,J2,2,Pin_2*%
%TO.N,VM*%
X129032000Y-52324000D03*
D11*
%TO.P,J2,1,Pin_1*%
%TO.N,GND*%
X126492000Y-52324000D03*
%TD*%
D12*
%TO.N,GND*%
X120904000Y-55880000D03*
X133096000Y-49784000D03*
X166624000Y-49784000D03*
X165608000Y-55372000D03*
X166624000Y-59944000D03*
X161036000Y-70612000D03*
X138176000Y-92456000D03*
%TO.N,Net-(U7-G)*%
X132206265Y-83693735D03*
X137160000Y-79756000D03*
%TO.N,Net-(U8-G)*%
X152487000Y-81027000D03*
X138684000Y-89408000D03*
%TO.N,/HA2*%
X133096000Y-79756000D03*
X130533669Y-81302331D03*
%TO.N,/LA1*%
X136500735Y-78891265D03*
X129540000Y-79137990D03*
%TO.N,/HB2*%
X137867107Y-65488000D03*
X168148000Y-57404000D03*
%TO.N,Net-(U3-G)*%
X168148000Y-51304000D03*
X155956000Y-57404000D03*
%TO.N,/BMA1*%
X152487000Y-77469000D03*
%TO.N,VM*%
X128793500Y-76189300D03*
X129899000Y-58409300D03*
X137160000Y-86868000D03*
X144780000Y-91440000D03*
%TO.N,/BMA2*%
X152487000Y-85597000D03*
%TO.N,/CA1*%
X134403215Y-67937899D03*
X135648000Y-75184000D03*
%TO.N,/HB1*%
X132353715Y-61741715D03*
X134112000Y-47244000D03*
%TO.N,/SRAH*%
X127491485Y-59944000D03*
X134151735Y-87336265D03*
%TO.N,GND*%
X141224000Y-64008000D03*
X135636000Y-53340000D03*
X165100000Y-65532000D03*
X120904000Y-67564000D03*
X122428000Y-59436000D03*
X155448000Y-87884000D03*
X141732000Y-64516000D03*
X137668000Y-87884000D03*
X122936000Y-71120000D03*
X127000000Y-81788000D03*
X147320000Y-92964000D03*
X124968000Y-52324000D03*
X143256000Y-92456000D03*
X133096000Y-56388000D03*
X121412000Y-75692000D03*
X163576000Y-68072000D03*
X124460000Y-55372000D03*
X129032000Y-79756000D03*
X123444000Y-52324000D03*
X141224000Y-65024000D03*
X137160000Y-84836000D03*
X126492000Y-50800000D03*
X144780000Y-89916000D03*
X124460000Y-61468000D03*
X135128000Y-89916000D03*
X161036000Y-66040000D03*
%TO.N,VC*%
X122343000Y-69077300D03*
%TO.N,/SRBH*%
X128016000Y-54356000D03*
X137252000Y-59944000D03*
X122936000Y-54356000D03*
X134539735Y-55291735D03*
%TO.N,/LA2*%
X133999264Y-70362378D03*
X146302000Y-88900000D03*
%TO.N,/LB2*%
X149348000Y-65532000D03*
X134600424Y-65614071D03*
%TO.N,/SRAL*%
X128792939Y-62087598D03*
X140120000Y-92456000D03*
%TO.N,/TMC5160A/12VOUT*%
X129899000Y-56885300D03*
X129299000Y-61468000D03*
%TO.N,/SRBL*%
X121920000Y-54356000D03*
X139717001Y-62398738D03*
X134305926Y-54209396D03*
X128016000Y-53555997D03*
X138517001Y-61976000D03*
X137252000Y-60744003D03*
%TO.N,/TMC5160A/VCC*%
X128091485Y-72793785D03*
X127931000Y-57186300D03*
%TO.N,/BMB1*%
X155956000Y-53848000D03*
%TO.N,/BMB2*%
X138176000Y-64516000D03*
X145201000Y-59691000D03*
X155956000Y-61975999D03*
%TO.N,/TMC5160A/ENABLE*%
X124968000Y-72044000D03*
X127095658Y-73247658D03*
%TO.N,Net-(U7-S)*%
X146009000Y-84836000D03*
X148167000Y-81027000D03*
%TO.N,/LB1*%
X135555735Y-54275735D03*
X136852000Y-56388000D03*
%TO.N,Net-(U2-G)*%
X132084000Y-47244000D03*
X151636000Y-53848000D03*
%TO.N,Net-(U2-S)*%
X151636000Y-57406000D03*
X149478000Y-61215000D03*
X151636000Y-57406000D03*
X151636000Y-57406000D03*
X149478000Y-61215000D03*
X149478000Y-61215000D03*
%TD*%
D13*
%TO.N,Net-(U7-G)*%
X133222265Y-83693735D02*
X137160000Y-79756000D01*
X132206265Y-83693735D02*
X133222265Y-83693735D01*
%TO.N,Net-(U8-G)*%
X152487000Y-84749000D02*
X152487000Y-81027000D01*
X144531471Y-92040000D02*
X145196000Y-92040000D01*
X141899471Y-89408000D02*
X144531471Y-92040000D01*
X145196000Y-92040000D02*
X152487000Y-84749000D01*
X138684000Y-89408000D02*
X141899471Y-89408000D01*
%TO.N,/HA2*%
X131549669Y-81302331D02*
X133096000Y-79756000D01*
X130533669Y-81302331D02*
X131549669Y-81302331D01*
%TO.N,/LA1*%
X129540000Y-79137990D02*
X129786725Y-78891265D01*
X129786725Y-78891265D02*
X136500735Y-78891265D01*
%TO.N,/BMB2*%
X143273266Y-59691000D02*
X145201000Y-59691000D01*
X138448266Y-64516000D02*
X143273266Y-59691000D01*
X138176000Y-64516000D02*
X138448266Y-64516000D01*
%TO.N,/HB2*%
X170314000Y-59570000D02*
X168148000Y-57404000D01*
X170314000Y-62618000D02*
X170314000Y-59570000D01*
X159646000Y-62618000D02*
X170314000Y-62618000D01*
X158403999Y-61375999D02*
X159646000Y-62618000D01*
X150460001Y-61375999D02*
X158403999Y-61375999D01*
X137867107Y-65488000D02*
X138067107Y-65688000D01*
X146148000Y-65688000D02*
X150460001Y-61375999D01*
X138067107Y-65688000D02*
X146148000Y-65688000D01*
%TO.N,/SRBL*%
X138866209Y-61976000D02*
X139288947Y-62398738D01*
X138517001Y-61976000D02*
X138866209Y-61976000D01*
X139288947Y-62398738D02*
X139717001Y-62398738D01*
%TO.N,Net-(U3-G)*%
X155356000Y-53599471D02*
X157651471Y-51304000D01*
X155356000Y-56804000D02*
X155356000Y-53599471D01*
X155956000Y-57404000D02*
X155356000Y-56804000D01*
X157651471Y-51304000D02*
X168148000Y-51304000D01*
%TO.N,/LB2*%
X149348000Y-65532000D02*
X148792000Y-66088000D01*
X135074353Y-66088000D02*
X134600424Y-65614071D01*
X148792000Y-66088000D02*
X135074353Y-66088000D01*
%TO.N,/LA2*%
X133999264Y-75541264D02*
X133999264Y-70362378D01*
X146302000Y-88900000D02*
X143365494Y-85963494D01*
X143365494Y-84907494D02*
X133999264Y-75541264D01*
X143365494Y-85963494D02*
X143365494Y-84907494D01*
%TO.N,/HB1*%
X137102817Y-61741715D02*
X132353715Y-61741715D01*
X137852000Y-60992532D02*
X137102817Y-61741715D01*
X137852000Y-50984000D02*
X137852000Y-60992532D01*
X134112000Y-47244000D02*
X137852000Y-50984000D01*
D14*
%TO.N,/BMA1*%
X169164000Y-66548000D02*
X163408000Y-66548000D01*
X163408000Y-66548000D02*
X152487000Y-77469000D01*
%TO.N,VM*%
X133096000Y-55212300D02*
X129899000Y-58409300D01*
X133096000Y-52009522D02*
X133096000Y-55212300D01*
X137160000Y-86868000D02*
X140208000Y-86868000D01*
X130332000Y-51024000D02*
X132110478Y-51024000D01*
X130049000Y-58559300D02*
X130049000Y-74933800D01*
X129032000Y-52324000D02*
X130332000Y-51024000D01*
X129899000Y-58409300D02*
X130049000Y-58559300D01*
X130049000Y-74933800D02*
X128793500Y-76189300D01*
X132110478Y-51024000D02*
X133096000Y-52009522D01*
X140208000Y-86868000D02*
X144780000Y-91440000D01*
%TO.N,/BMA2*%
X169164000Y-69088000D02*
X152655000Y-85597000D01*
X152655000Y-85597000D02*
X152487000Y-85597000D01*
D13*
%TO.N,/CA1*%
X134403215Y-67937899D02*
X135648000Y-69182684D01*
X135648000Y-69182684D02*
X135648000Y-75184000D01*
%TO.N,/SRAH*%
X124368000Y-77552530D02*
X124368000Y-63067485D01*
X124368000Y-63067485D02*
X127491485Y-59944000D01*
X134151735Y-87336265D02*
X124368000Y-77552530D01*
D14*
%TO.N,VC*%
X122343000Y-61553000D02*
X122343000Y-69077300D01*
X131572000Y-52324000D02*
X122343000Y-61553000D01*
D13*
%TO.N,/SRBH*%
X134539735Y-57231735D02*
X134539735Y-55291735D01*
X137252000Y-59944000D02*
X134539735Y-57231735D01*
X128016000Y-54356000D02*
X122936000Y-54356000D01*
%TO.N,/SRAL*%
X128792939Y-72940860D02*
X128016000Y-73717799D01*
X128792939Y-62087598D02*
X128792939Y-72940860D01*
X128016000Y-73717799D02*
X128016000Y-80352000D01*
X128016000Y-80352000D02*
X140120000Y-92456000D01*
%TO.N,/TMC5160A/12VOUT*%
X129299000Y-57485300D02*
X129899000Y-56885300D01*
X129299000Y-61468000D02*
X129299000Y-57485300D01*
%TO.N,/SRBL*%
X133939735Y-54575587D02*
X134305926Y-54209396D01*
X137203474Y-60744003D02*
X133939735Y-57480264D01*
X128016000Y-53555997D02*
X122720003Y-53555997D01*
X137252000Y-60744003D02*
X137203474Y-60744003D01*
X122720003Y-53555997D02*
X121920000Y-54356000D01*
X133939735Y-57480264D02*
X133939735Y-54575587D01*
%TO.N,/TMC5160A/VCC*%
X128091485Y-72793785D02*
X128091485Y-57346785D01*
X128091485Y-57346785D02*
X127931000Y-57186300D01*
D14*
%TO.N,/BMB1*%
X169164000Y-61468000D02*
X163576000Y-61468000D01*
X163576000Y-61468000D02*
X155956000Y-53848000D01*
%TO.N,/BMB2*%
X169164000Y-64008000D02*
X157988001Y-64008000D01*
X157988001Y-64008000D02*
X155956000Y-61975999D01*
D13*
%TO.N,/TMC5160A/ENABLE*%
X125892000Y-72044000D02*
X127095658Y-73247658D01*
X124968000Y-72044000D02*
X125892000Y-72044000D01*
%TO.N,Net-(U7-S)*%
X146517000Y-82677000D02*
X148167000Y-81027000D01*
X146009000Y-84836000D02*
X146517000Y-84328000D01*
X146517000Y-84328000D02*
X146517000Y-82677000D01*
%TO.N,/LB1*%
X136852000Y-55572000D02*
X136852000Y-56388000D01*
X135555735Y-54275735D02*
X136852000Y-55572000D01*
%TO.N,Net-(U2-G)*%
X132684000Y-46644000D02*
X132084000Y-47244000D01*
X151636000Y-53848000D02*
X144432000Y-46644000D01*
%TO.N,Net-(U2-S)*%
X149986000Y-60707000D02*
X149986000Y-59056000D01*
X149478000Y-61215000D02*
X149986000Y-60707000D01*
X149986000Y-59056000D02*
X151636000Y-57406000D01*
X149986000Y-60707000D02*
X149986000Y-59056000D01*
%TO.N,Net-(U2-G)*%
X144432000Y-46644000D02*
X132684000Y-46644000D01*
%TO.N,Net-(U2-S)*%
X149478000Y-61215000D02*
X149986000Y-60707000D01*
X149986000Y-59056000D02*
X151636000Y-57406000D01*
X149478000Y-61215000D02*
X149986000Y-60707000D01*
X149986000Y-59056000D02*
X151636000Y-57406000D01*
X149986000Y-60707000D02*
X149986000Y-59056000D01*
%TD*%
D15*
X120904000Y-55880000D03*
X133096000Y-49784000D03*
X166624000Y-49784000D03*
X165608000Y-55372000D03*
X166624000Y-59944000D03*
X161036000Y-70612000D03*
X138176000Y-92456000D03*
X132206265Y-83693735D03*
X137160000Y-79756000D03*
X152487000Y-81027000D03*
X138684000Y-89408000D03*
X133096000Y-79756000D03*
X130533669Y-81302331D03*
X136500735Y-78891265D03*
X129540000Y-79137990D03*
X137867107Y-65488000D03*
X168148000Y-57404000D03*
X168148000Y-51304000D03*
X155956000Y-57404000D03*
X152487000Y-77469000D03*
X128793500Y-76189300D03*
X129899000Y-58409300D03*
X137160000Y-86868000D03*
X144780000Y-91440000D03*
X152487000Y-85597000D03*
X134403215Y-67937899D03*
X135648000Y-75184000D03*
X132353715Y-61741715D03*
X134112000Y-47244000D03*
X127491485Y-59944000D03*
X134151735Y-87336265D03*
X141224000Y-64008000D03*
X135636000Y-53340000D03*
X165100000Y-65532000D03*
X120904000Y-67564000D03*
X122428000Y-59436000D03*
X155448000Y-87884000D03*
X141732000Y-64516000D03*
X137668000Y-87884000D03*
X122936000Y-71120000D03*
X127000000Y-81788000D03*
X147320000Y-92964000D03*
X124968000Y-52324000D03*
X143256000Y-92456000D03*
X133096000Y-56388000D03*
X121412000Y-75692000D03*
X163576000Y-68072000D03*
X124460000Y-55372000D03*
X129032000Y-79756000D03*
X123444000Y-52324000D03*
X141224000Y-65024000D03*
X137160000Y-84836000D03*
X126492000Y-50800000D03*
X144780000Y-89916000D03*
X124460000Y-61468000D03*
X135128000Y-89916000D03*
X161036000Y-66040000D03*
X122343000Y-69077300D03*
X128016000Y-54356000D03*
X137252000Y-59944000D03*
X122936000Y-54356000D03*
X134539735Y-55291735D03*
X133999264Y-70362378D03*
X146302000Y-88900000D03*
X149348000Y-65532000D03*
X134600424Y-65614071D03*
X128792939Y-62087598D03*
X140120000Y-92456000D03*
X129899000Y-56885300D03*
X129299000Y-61468000D03*
X121920000Y-54356000D03*
X139717001Y-62398738D03*
X134305926Y-54209396D03*
X128016000Y-53555997D03*
X138517001Y-61976000D03*
X137252000Y-60744003D03*
X128091485Y-72793785D03*
X127931000Y-57186300D03*
X155956000Y-53848000D03*
X138176000Y-64516000D03*
X145201000Y-59691000D03*
X155956000Y-61975999D03*
X124968000Y-72044000D03*
X127095658Y-73247658D03*
X146009000Y-84836000D03*
X148167000Y-81027000D03*
X135555735Y-54275735D03*
X136852000Y-56388000D03*
X132084000Y-47244000D03*
X151636000Y-53848000D03*
X151636000Y-57406000D03*
X149478000Y-61215000D03*
X151636000Y-57406000D03*
X151636000Y-57406000D03*
X149478000Y-61215000D03*
X149478000Y-61215000D03*
D16*
X169164000Y-69088000D03*
X169164000Y-66548000D03*
X169164000Y-64008000D03*
X169164000Y-61468000D03*
X119380000Y-74676000D03*
X119380000Y-72136000D03*
X119380000Y-69596000D03*
X119380000Y-67056000D03*
X119380000Y-64516000D03*
X119380000Y-61976000D03*
X119380000Y-59436000D03*
X131572000Y-52324000D03*
X129032000Y-52324000D03*
X126492000Y-52324000D03*
M02*
